{"glyphs":{"0":{"ha":560,"x_min":-45,"x_max":447,"o":"m 250 123 q 180 22 237 22 l 143 22 q 100 123 86 22 l 151 524 q 222 626 165 626 l 259 626 q 302 524 316 626 l 250 123 m 190 648 q 69 602 123 648 q 7 490 16 555 l -37 157 q -3 46 -45 92 q 106 0 39 0 l 212 0 q 333 46 279 0 q 395 157 387 92 l 438 490 q 406 602 447 555 q 296 648 363 648 l 190 648 z "},"1":{"ha":369,"x_min":-68,"x_max":258,"o":"m 166 22 l 222 456 q 222 457 222 457 l 244 622 l 244 623 l 248 646 l -26 527 l -20 508 l 96 558 l 26 22 l -66 22 l -68 0 l 255 0 l 258 22 l 166 22 z "},"2":{"ha":561,"x_min":-54,"x_max":450,"o":"m 254 302 q 375 349 321 302 q 437 459 429 394 l 441 490 q 408 602 450 555 q 298 648 366 648 l 182 648 q 106 642 146 648 q 37 610 64 635 l 16 453 l 157 453 l 166 524 q 236 626 179 626 l 261 626 q 305 524 318 626 l 292 426 q 222 323 279 323 l 151 323 q 29 278 83 323 q -33 167 -24 232 l -54 0 l 376 0 l 401 195 l 260 195 l 252 124 q 181 22 238 22 l 89 22 l 112 200 q 182 302 125 302 l 254 302 z "},"3":{"ha":580,"x_min":-71,"x_max":448,"o":"m 440 490 q 407 602 448 555 q 298 648 365 648 l 192 648 q 71 602 124 648 q 9 490 17 555 l 1 431 l 141 431 l 153 524 q 223 626 166 626 l 260 626 q 304 524 317 626 l 267 232 q 196 130 253 130 l 101 130 l 98 108 l 193 108 q 237 6 250 108 l 224 -92 q 154 -194 211 -194 l 117 -194 q 73 -92 60 -194 l 85 0 l -53 0 q -59 -28 -57 -14 l -63 -58 q -30 -170 -71 -123 q 79 -216 12 -216 l 186 -216 q 307 -170 253 -216 q 369 -58 360 -123 l 373 -28 q 288 119 387 80 q 411 265 397 158 l 440 490 z "},"4":{"ha":529,"x_min":-73,"x_max":450,"o":"m -18 237 l 250 475 l 218 237 l -18 237 m 331 22 l 356 216 l 448 216 l 450 237 l 359 237 l 387 456 q 387 457 387 456 l 408 615 l 408 616 l 412 646 l -73 216 l 216 216 l 191 22 l 99 22 l 96 0 l 420 0 l 422 22 l 331 22 z "},"5":{"ha":542,"x_min":-73,"x_max":456,"o":"m 100 130 l 157 561 q 159 604 159 587 q 155 626 158 613 l 269 626 l 269 625 q 303 547 313 625 l 292 455 l 432 455 l 456 648 l 6 648 q 18 599 16 621 q 17 561 20 583 l -43 108 l 98 108 l 98 108 l 150 108 l 150 108 q 155 108 153 108 l 192 108 q 235 6 249 108 l 222 -92 q 153 -194 210 -194 l 115 -194 q 72 -92 58 -194 l 83 0 l -54 0 q -60 -28 -58 -14 l -64 -58 q -31 -170 -73 -123 q 78 -216 11 -216 l 184 -216 q 305 -170 252 -216 q 368 -58 359 -123 l 372 -28 q 338 83 380 37 q 229 130 296 130 l 100 130 z "},"6":{"ha":574,"x_min":-42,"x_max":477,"o":"m 248 518 q 291 416 304 518 l 253 124 q 183 22 240 22 l 146 22 q 102 124 89 22 l 140 416 q 210 518 153 518 l 248 518 m 462 648 l 469 706 q 436 817 477 771 q 327 863 394 863 l 221 863 q 100 817 153 863 q 38 706 46 771 l -34 157 q -1 46 -42 92 q 109 0 41 0 l 215 0 q 336 46 282 0 q 398 157 389 92 l 427 382 q 394 494 435 448 q 285 540 352 540 l 179 540 q 156 538 169 540 l 182 739 q 252 842 195 842 l 290 842 q 334 739 347 842 l 321 648 l 462 648 z "},"7":{"ha":527,"x_min":-192,"x_max":446,"o":"m 446 648 l 24 648 l -1 455 l 139 455 l 151 547 q 207 625 161 625 l 207 626 l 290 626 l -57 -155 q -118 -197 -79 -185 l -186 -212 l -192 -214 l -86 -214 q 41 -173 -20 -214 q 128 -69 100 -132 l 446 648 z "},"8":{"ha":572,"x_min":-49,"x_max":471,"o":"m 246 124 q 176 22 233 22 l 139 22 q 96 124 82 22 l 109 222 q 178 323 121 323 l 216 323 q 259 222 273 323 l 246 124 m 176 739 q 245 842 189 842 l 283 842 q 327 739 340 842 l 289 448 q 218 345 275 345 l 181 345 q 138 448 124 345 l 176 739 m 463 706 q 429 817 471 771 q 320 863 387 863 l 214 863 q 93 817 146 863 q 31 706 39 771 l 2 481 q 87 334 -12 374 q -37 188 -22 296 l -41 157 q -7 46 -49 92 q 102 0 35 0 l 208 0 q 329 46 275 0 q 391 157 382 92 l 395 188 q 311 334 409 296 q 433 481 419 374 l 463 706 z "},"9":{"ha":584,"x_min":-69,"x_max":450,"o":"m 161 130 q 117 232 104 130 l 155 524 q 225 626 168 626 l 262 626 q 307 524 319 626 l 268 231 q 198 130 254 130 l 161 130 m 442 490 q 409 602 450 555 q 300 648 367 648 l 194 648 q 73 602 126 648 q 11 490 19 555 l -18 265 q 15 154 -27 200 q 123 108 56 108 l 230 108 q 252 110 239 108 l 226 -92 q 156 -194 213 -194 l 119 -194 q 75 -92 62 -194 l 87 0 l -53 0 l -61 -58 q -28 -170 -69 -123 q 81 -216 14 -216 l 188 -216 q 309 -170 255 -216 q 371 -58 362 -123 l 442 490 z "}," ":{"ha":345,"x_min":0,"x_max":0,"o":""}," ":{"ha":345,"x_min":0,"x_max":0,"o":""},"!":{"ha":308,"x_min":-37,"x_max":210,"o":"m 32 151 q -7 136 10 151 q -28 98 -25 120 l -34 54 q -23 16 -37 31 q 12 0 -9 0 l 49 0 q 89 16 71 0 q 109 54 106 31 l 115 98 q 104 136 118 120 q 68 151 91 151 l 32 151 m 125 863 q 85 848 102 863 q 64 810 67 832 l 59 766 q 40 501 50 701 q 46 259 28 259 l 83 259 q 152 501 102 259 q 201 766 193 701 l 208 810 q 197 848 210 832 q 161 863 183 863 l 125 863 z "},"\"":{"ha":456,"x_min":62,"x_max":400,"o":"m 214 1025 q 203 1063 217 1048 q 168 1078 190 1078 l 131 1078 q 92 1063 109 1078 q 71 1025 74 1048 l 65 981 q 76 943 62 959 q 111 928 90 928 l 130 928 q 111 877 128 903 l 68 818 l 65 813 l 149 889 q 206 968 186 922 l 214 1025 m 397 1025 q 387 1063 400 1048 q 351 1078 373 1078 l 314 1078 q 275 1063 292 1078 q 254 1025 257 1048 l 248 981 q 259 943 245 959 q 294 928 273 928 l 313 928 q 294 877 311 903 l 252 818 l 248 813 l 332 889 q 389 968 369 922 l 397 1025 z "},"&":{"ha":838,"x_min":-40,"x_max":736,"o":"m 712 1 l 648 18 q 605 123 593 35 l 631 323 l 734 323 l 736 345 l 633 345 l 669 621 l 526 600 l 493 345 l 190 345 q 146 448 133 346 l 184 739 q 254 842 197 842 l 292 842 q 335 739 349 842 l 324 652 l 464 652 l 471 706 q 438 817 479 771 q 329 863 396 863 l 223 863 q 102 817 155 863 q 40 706 48 771 l 11 481 q 96 334 -3 374 q -28 188 -14 296 l -32 157 q 1 46 -40 92 q 111 0 43 0 l 217 0 q 338 46 284 0 q 400 157 391 92 l 404 188 q 405 216 406 202 l 267 216 l 255 123 q 185 22 242 22 l 148 22 q 104 123 91 22 l 117 222 q 187 323 130 323 l 259 323 q 259 323 259 323 l 490 323 l 469 157 q 502 46 460 92 q 611 0 544 0 l 717 0 l 712 1 z "},"'":{"ha":271,"x_min":62,"x_max":217,"o":"m 214 1025 q 203 1063 217 1048 q 168 1078 190 1078 l 131 1078 q 92 1063 109 1078 q 71 1025 74 1048 l 65 981 q 76 943 62 959 q 111 928 90 928 l 130 928 q 111 877 128 903 l 68 818 l 65 813 l 149 889 q 206 968 186 922 l 214 1025 z "},"+":{"ha":688,"x_min":59,"x_max":641,"o":"m 296 439 l 59 439 l 71 534 l 309 534 l 341 784 l 342 785 l 436 785 l 404 534 l 640 534 l 641 533 l 629 439 l 391 439 l 359 188 l 264 188 l 296 439 z "},",":{"ha":288,"x_min":-34,"x_max":121,"o":"m 117 98 q 107 136 121 120 q 71 151 94 151 l 35 151 q -5 136 13 151 q -25 98 -22 120 l -31 54 q -20 16 -34 31 q 15 0 -7 0 l 34 0 q 15 -51 32 -24 l -28 -109 l -31 -115 l 53 -39 q 110 40 90 -5 l 117 98 z "},"-":{"ha":557,"x_min":-18,"x_max":408,"o":"m 399 291 q 379 253 397 269 q 339 237 361 237 l 31 237 q -4 253 9 237 q -15 291 -18 269 l -9 335 q 12 373 -6 357 q 51 389 29 389 l 359 389 q 395 373 381 389 q 405 335 408 357 l 399 291 z "},"­":{"ha":557,"x_min":-18,"x_max":408,"o":"m 399 291 q 379 253 397 269 q 339 237 361 237 l 31 237 q -4 253 9 237 q -15 291 -18 269 l -9 335 q 12 373 -6 357 q 51 389 29 389 l 359 389 q 395 373 381 389 q 405 335 408 357 l 399 291 z "},".":{"ha":315,"x_min":-41,"x_max":113,"o":"m 104 54 q 84 16 102 31 q 44 0 66 0 l 7 0 q -28 16 -14 0 q -39 54 -41 31 l -33 98 q -12 136 -30 120 q 27 151 5 151 l 64 151 q 100 136 86 151 q 110 98 113 120 l 104 54 z "},":":{"ha":260,"x_min":-55,"x_max":164,"o":"m 91 54 q 71 16 88 31 q 31 0 53 0 l -6 0 q -41 16 -28 0 q -52 54 -55 31 l -46 98 q -26 136 -43 120 q 14 151 -8 151 l 50 151 q 86 136 73 151 q 96 98 100 120 l 91 54 m 155 550 q 135 512 153 528 q 96 496 117 496 l 59 496 q 23 512 37 496 q 12 550 9 528 l 18 594 q 39 632 21 616 q 78 648 56 648 l 115 648 q 151 632 137 648 q 161 594 164 616 l 155 550 z "},";":{"ha":260,"x_min":-54,"x_max":163,"o":"m 155 550 q 134 512 152 528 q 95 496 117 496 l 58 496 q 22 512 36 496 q 12 550 9 528 l 18 594 q 38 632 20 616 q 78 648 56 648 l 115 648 q 150 632 136 648 q 161 594 163 616 l 155 550 m 97 98 q 87 136 100 120 q 51 151 73 151 l 14 151 q -25 136 -7 151 q -45 98 -43 120 l -52 54 q -41 16 -54 31 q -5 0 -27 0 l 14 0 q -5 -51 12 -24 l -48 -109 l -52 -115 l 33 -39 q 90 40 69 -5 l 97 98 z "},";":{"ha":260,"x_min":-54,"x_max":163,"o":"m 155 550 q 134 512 152 528 q 95 496 117 496 l 58 496 q 22 512 36 496 q 12 550 9 528 l 18 594 q 38 632 20 616 q 78 648 56 648 l 115 648 q 150 632 136 648 q 161 594 163 616 l 155 550 m 97 98 q 87 136 100 120 q 51 151 73 151 l 14 151 q -25 136 -7 151 q -45 98 -43 120 l -52 54 q -41 16 -54 31 q -5 0 -27 0 l 14 0 q -5 -51 12 -24 l -48 -109 l -52 -115 l 33 -39 q 90 40 69 -5 l 97 98 z "},"?":{"ha":554,"x_min":12,"x_max":472,"o":"m 215 863 q 94 817 148 863 q 32 706 41 771 l 14 568 q 13 540 12 554 l 151 540 l 176 739 q 247 842 190 842 l 284 842 q 328 739 341 842 l 299 523 q 259 429 290 450 q 157 376 200 419 q 105 275 113 332 l 103 259 l 243 259 l 250 308 q 307 416 262 402 l 307 416 q 399 471 361 430 q 446 568 438 514 l 463 706 q 430 817 472 771 q 321 863 389 863 l 215 863 m 142 151 q 102 136 120 151 q 82 98 85 120 l 77 54 q 87 16 74 31 q 123 0 100 0 l 159 0 q 199 16 181 0 q 219 54 216 31 l 225 98 q 214 136 228 120 q 179 151 201 151 l 142 151 z "},"A":{"ha":570,"x_min":-207,"x_max":476,"o":"m 130 349 l 180 739 q 251 842 194 842 l 288 842 q 332 739 345 842 l 281 349 l 130 349 m 378 22 l 467 706 q 434 817 476 771 q 325 863 393 863 l 219 863 q 98 817 152 863 q 36 706 44 771 l -1 417 l -3 417 q -5 394 -3 406 l -11 349 l -87 349 l -90 327 l -14 327 l -62 -49 q -133 -155 -74 -137 l -201 -171 l -207 -172 l -101 -172 q 20 -126 -33 -172 q 82 -15 74 -81 l 84 0 l 84 0 l 127 327 l 278 327 l 238 22 l 151 22 l 147 0 l 456 0 l 459 22 l 378 22 z "},"B":{"ha":574,"x_min":-144,"x_max":479,"o":"m 296 448 q 233 346 284 351 l 233 345 l 134 345 l 143 417 q 146 448 144 431 l 184 739 q 189 770 186 755 l 198 842 l 297 842 l 297 841 q 334 739 347 836 l 296 448 m 254 123 q 184 22 241 22 l 147 22 q 104 123 90 22 l 116 222 q 121 252 118 237 l 131 323 l 230 323 l 230 323 q 267 222 280 319 l 254 123 m 471 706 q 437 817 479 771 q 328 863 395 863 l 222 863 q 211 863 220 863 l 211 863 l -33 863 l -35 842 l 44 842 q 50 814 48 826 q 47 770 52 793 l 9 481 q 9 475 10 484 l 9 475 l -50 22 l -142 22 l -144 0 l 216 0 q 337 46 283 0 q 399 157 391 92 l 403 188 q 318 334 417 296 q 441 481 427 374 l 471 706 z "},"C":{"ha":570,"x_min":-43,"x_max":477,"o":"m 264 216 l 252 123 q 182 22 239 22 l 145 22 q 102 123 88 22 l 182 739 q 252 842 195 842 l 289 842 q 333 739 346 842 l 307 539 l 447 539 l 469 706 q 435 817 477 771 q 326 863 393 863 l 220 863 q 99 817 153 863 q 37 706 45 771 l -35 157 q -1 46 -43 92 q 108 0 41 0 l 214 0 q 335 46 281 0 q 397 157 389 92 l 405 216 l 264 216 z "},"D":{"ha":570,"x_min":-147,"x_max":476,"o":"m 181 739 q 186 770 183 755 l 195 842 l 288 842 q 294 841 291 842 q 304 839 300 841 q 308 838 306 839 q 309 837 309 837 q 313 836 311 837 l 313 835 q 317 832 315 834 q 318 831 317 831 q 320 829 319 830 q 321 827 321 828 q 323 824 323 826 q 325 823 324 823 q 327 819 326 821 q 328 817 328 818 q 330 812 329 814 q 330 810 330 812 q 332 805 331 808 q 332 803 332 805 q 333 797 333 800 q 334 794 333 796 q 334 787 334 790 q 334 785 334 784 q 334 777 334 781 q 334 776 334 780 q 332 739 334 760 l 252 123 q 210 29 242 49 q 182 22 197 22 l 144 22 q 101 123 87 22 l 181 739 m 372 90 l 372 91 q 379 103 376 97 l 379 103 q 397 157 393 130 l 468 706 q 435 817 476 771 q 326 863 393 863 l 220 863 q 208 863 217 863 l 208 863 l -35 863 l -38 842 l 41 842 q 47 814 45 826 q 45 770 49 793 l -53 22 l -144 22 l -147 0 l 213 0 q 229 1 221 0 q 233 1 227 1 q 245 3 241 2 q 251 4 245 3 q 260 7 257 5 q 267 9 262 7 q 275 12 271 10 q 281 14 278 13 q 289 17 286 16 q 296 20 294 19 q 302 24 298 22 q 310 28 307 27 q 315 32 310 28 q 323 37 321 35 q 323 38 323 37 l 324 38 q 364 79 347 56 l 364 79 q 372 90 368 84 l 372 90 z "},"E":{"ha":570,"x_min":-144,"x_max":488,"o":"m 463 671 l 488 863 l -33 863 l -35 842 l 44 842 q 50 814 48 826 q 47 770 52 793 l -50 22 l -142 22 l -144 0 l 376 0 l 401 193 l 261 193 l 249 100 q 193 22 239 23 l 193 22 l 147 22 q 104 123 90 22 l 130 327 l 279 327 l 283 349 l 133 349 l 184 739 q 189 770 186 755 l 198 842 l 300 842 l 300 841 q 335 763 345 840 l 323 671 l 463 671 z "},"F":{"ha":498,"x_min":-146,"x_max":486,"o":"m 461 671 l 486 863 l -35 863 l -37 842 l 42 842 q 47 814 46 826 q 45 770 50 793 l -52 22 l -144 22 l -146 0 l 177 0 l 180 22 l 88 22 l 128 327 l 277 327 l 281 349 l 131 349 l 182 739 q 187 770 184 755 l 196 842 l 298 842 l 298 841 q 333 763 343 840 l 321 671 l 461 671 z "},"G":{"ha":576,"x_min":-100,"x_max":483,"o":"m 68 -124 q 70 -118 68 -121 q 151 -69 77 -96 q 230 -41 233 -39 l 195 -308 q 125 -410 182 -410 l 87 -410 q 47 -383 58 -410 q 44 -308 37 -357 l 68 -124 m 459 647 l 483 826 q 422 857 461 850 q 347 863 382 864 l 347 861 q 325 863 334 863 l 218 863 q 98 817 151 863 q 35 706 44 771 l -36 157 q -3 46 -44 92 q 106 0 39 0 l 235 0 q 221 -14 231 -9 q 135 -43 199 -22 q -31 -117 6 -86 q -86 -231 -77 -157 l -92 -274 q -59 -385 -100 -339 q 50 -431 -17 -431 l 157 -431 q 277 -385 224 -431 q 340 -274 331 -339 l 417 323 l 277 323 l 250 115 l 249 115 q 248 107 249 113 q 181 22 233 22 l 144 22 q 100 123 87 22 l 180 739 q 250 842 193 842 l 288 842 q 331 739 345 842 l 319 647 l 459 647 z "},"H":{"ha":576,"x_min":-149,"x_max":564,"o":"m 376 22 l 469 739 q 475 770 471 755 l 484 842 l 562 842 l 564 863 l 508 863 q 496 863 505 863 l 496 863 l 296 863 l 294 842 l 330 842 q 335 814 334 826 q 333 770 337 793 l 278 349 l 128 349 l 179 742 l 178 742 l 194 862 q 161 973 202 927 q 52 1019 119 1019 l -54 1019 l -50 1017 l 15 1002 q 58 895 69 984 l 0 452 q -3 429 -1 441 l -2 429 l -12 349 l -98 349 l -100 327 l -15 327 l -55 22 l -146 22 l -149 0 l 153 0 l 155 22 l 85 22 l 119 280 l 119 280 l 125 327 l 275 327 l 235 22 l 187 22 l 184 0 l 465 0 l 467 22 l 376 22 z "},"I":{"ha":289,"x_min":-148,"x_max":275,"o":"m 87 22 l 180 739 q 186 770 182 755 l 195 842 l 273 842 l 275 863 l 219 863 q 208 863 216 863 l 208 863 l -36 863 l -39 842 l 41 842 q 46 814 45 826 q 44 770 48 793 l 5 475 l 5 475 l -54 22 l -145 22 l -148 0 l 176 0 l 178 22 l 87 22 z "},"J":{"ha":281,"x_min":-242,"x_max":273,"o":"m 216 863 q 205 863 214 863 l 205 863 l -38 863 l -41 842 l 39 842 q 43 814 43 826 q 41 770 46 793 l -54 38 l -53 38 l -98 -308 q -168 -414 -109 -396 l -237 -430 l -242 -431 l -136 -431 q -15 -385 -68 -431 q 47 -274 39 -339 l 130 361 q 131 378 131 368 l 178 739 q 183 770 180 755 l 193 842 l 270 842 l 273 863 l 216 863 z "},"K":{"ha":557,"x_min":-146,"x_max":550,"o":"m 484 22 l 427 22 l 224 467 l 444 842 l 547 842 l 550 863 l 334 863 l 331 842 l 420 842 l 131 351 l 195 842 l 286 842 l 290 863 l -35 863 l -37 842 l 54 842 l -52 22 l -144 22 l -146 0 l 177 0 l 180 22 l 88 22 l 127 322 l 275 0 l 437 0 l 437 0 l 481 0 l 484 22 z "},"L":{"ha":525,"x_min":-144,"x_max":401,"o":"m 261 193 l 249 100 q 193 22 239 23 l 193 22 l 147 22 q 104 123 90 22 l 184 739 q 189 770 186 755 l 198 842 l 276 842 l 279 863 l 222 863 q 211 863 220 863 l 211 863 l -33 863 l -35 842 l 44 842 q 50 814 48 826 q 47 770 52 793 l -50 22 l -142 22 l -144 0 l 376 0 l 401 193 l 261 193 z "},"M":{"ha":873,"x_min":-208,"x_max":766,"o":"m 669 22 l 758 706 q 724 817 766 771 q 615 863 682 863 l 509 863 q 413 835 458 863 q 323 863 374 863 l 218 863 q 97 817 151 863 q 35 706 43 771 l -64 -49 q -134 -155 -75 -137 l -203 -171 l -208 -172 l -102 -172 q 19 -126 -35 -172 q 81 -15 73 -81 l 83 0 l 83 0 l 179 739 q 250 842 193 842 l 286 842 q 330 739 343 842 l 234 0 l 374 0 l 471 739 q 541 842 484 842 l 578 842 q 621 739 635 842 l 528 22 l 440 22 l 437 0 l 747 0 l 749 22 l 669 22 z "},"N":{"ha":584,"x_min":-144,"x_max":480,"o":"m 382 22 l 471 708 q 438 819 480 773 q 329 865 397 865 l 241 865 q 212 856 224 864 q 197 843 204 851 q 189 836 191 837 l 189 837 q 180 862 185 850 l 162 862 l 162 863 l -32 863 l -35 842 l 45 842 q 50 814 49 825 q 48 769 52 792 l -50 22 l -141 22 l -144 0 l 180 0 l 182 22 l 91 22 l 184 741 q 255 844 198 844 l 292 844 q 336 741 349 844 l 275 281 l 275 281 l 242 22 l 242 22 l 239 0 l 471 0 l 474 22 l 382 22 z "},"O":{"ha":574,"x_min":-43,"x_max":476,"o":"m 252 123 q 182 22 239 22 l 144 22 q 101 123 87 22 l 123 294 l 123 294 l 181 739 q 251 842 194 842 l 288 842 q 332 739 345 842 l 252 123 m 220 863 q 98 817 152 863 q 37 706 45 771 l -35 157 q -2 46 -43 92 q 107 0 40 0 l 214 0 q 334 46 281 0 q 397 157 388 92 l 468 706 q 435 817 476 771 q 326 863 393 863 l 220 863 z "},"P":{"ha":724,"x_min":43,"x_max":666,"o":"m 484 448 q 414 345 471 345 l 376 345 q 333 448 319 345 l 371 739 q 376 770 373 755 l 385 842 l 484 842 l 484 841 q 522 739 534 836 l 484 448 m 410 863 q 398 863 407 863 l 398 863 l 155 863 l 152 842 l 231 842 q 237 814 235 826 q 235 770 239 793 l 197 481 q 197 475 197 483 l 196 475 l 137 22 l 45 22 l 43 0 l 366 0 l 369 22 l 277 22 l 317 326 q 339 323 330 323 l 445 323 q 566 370 513 323 q 629 481 620 416 l 658 706 q 625 817 666 771 q 515 863 583 863 l 410 863 z "},"Q":{"ha":576,"x_min":-43,"x_max":477,"o":"m 100 115 q 136 22 143 98 q 100 115 92 30 m 182 739 q 252 842 195 842 l 289 842 q 333 739 346 842 l 252 123 q 244 81 250 100 q 128 136 202 136 l 103 136 l 182 739 m 374 -170 l 311 -154 q 267 -47 256 -136 l 275 11 q 397 157 383 50 l 469 706 q 435 817 477 771 q 326 863 393 863 l 220 863 q 99 817 153 863 q 37 706 45 771 l -35 157 q -1 46 -43 92 q 108 0 41 0 l 134 0 l 132 -14 q 165 -125 123 -79 q 274 -171 207 -171 l 380 -171 l 374 -170 z "},"R":{"ha":574,"x_min":-146,"x_max":488,"o":"m 295 448 q 231 346 283 351 l 231 345 l 132 345 l 142 417 q 144 448 142 431 l 182 739 q 188 770 184 755 l 197 842 l 296 842 l 296 841 q 333 739 346 836 l 295 448 m 483 -170 l 419 -154 q 376 -47 364 -136 l 386 28 l 385 28 l 404 173 q 379 274 412 230 q 292 328 347 317 q 391 382 349 339 q 440 481 433 425 l 469 706 q 436 817 477 771 q 327 863 394 863 l 221 863 q 210 863 218 863 l 210 863 l -34 863 l -37 842 l 43 842 q 48 814 47 826 q 46 770 50 793 l 8 481 q 8 475 9 483 l 7 475 l -52 22 l -143 22 l -146 0 l 178 0 l 180 22 l 89 22 l 128 326 q 181 323 134 325 q 225 313 208 323 q 240 -9 278 279 l 239 -20 l 239 -19 q 275 -127 234 -83 q 382 -171 317 -171 l 488 -171 l 483 -170 z "},"S":{"ha":532,"x_min":-48,"x_max":473,"o":"m 125 751 q 168 817 130 791 q 245 842 201 842 q 277 842 245 842 q 321 739 334 842 l 312 669 l 452 669 l 473 826 q 412 857 451 850 q 337 863 372 864 l 244 863 q 100 808 157 863 q 33 670 43 755 q 164 357 16 533 q 267 237 267 237 q 307 138 311 176 q 172 22 292 25 l 172 22 l 172 22 l 147 22 q 103 123 90 22 l 113 194 l -28 194 l -48 37 q 12 6 -27 12 q 87 0 52 -1 l 170 0 l 170 0 l 175 0 q 338 64 275 0 q 406 217 394 123 q 268 503 421 334 q 125 751 115 672 z "},"T":{"ha":555,"x_min":-37,"x_max":509,"o":"m 509 863 l -12 863 l -37 671 l -5 671 l 4 741 q 49 813 9 781 q 106 841 82 840 l 106 842 l 163 842 q 168 814 167 826 q 166 770 170 793 l 127 475 l 127 475 l 68 22 l -23 22 l -26 0 l 298 0 l 300 22 l 209 22 l 302 739 q 308 770 304 755 l 317 842 l 385 842 l 385 841 q 435 813 408 840 q 460 741 466 781 l 451 671 l 484 671 l 509 863 z "},"U":{"ha":695,"x_min":71,"x_max":695,"o":"m 169 844 l 79 157 q 113 46 71 92 q 222 0 155 0 l 311 0 q 339 9 327 1 q 355 22 347 14 q 362 28 361 28 q 363 28 362 28 q 371 3 366 14 l 389 3 l 389 2 l 583 2 l 585 24 l 507 24 q 501 51 503 39 q 503 96 498 73 l 600 844 l 692 844 l 695 865 l 371 865 l 368 844 l 460 844 l 366 123 q 296 22 353 22 l 259 22 q 216 123 202 22 l 309 844 l 309 844 l 312 865 l 80 865 l 77 844 l 169 844 z "},"V":{"ha":580,"x_min":-19,"x_max":604,"o":"m 604 863 l 388 863 l 385 842 l 484 842 l 281 281 l 211 842 l 304 842 l 307 863 l -16 863 l -19 842 l 64 842 l 188 0 l 188 0 l 210 0 l 507 842 l 601 842 l 604 863 z "},"W":{"ha":871,"x_min":-45,"x_max":929,"o":"m 823 1036 q 702 989 755 1036 q 640 878 648 943 l 542 123 q 471 22 528 22 l 435 22 q 391 123 378 22 l 487 863 l 347 863 l 250 123 q 180 22 237 22 l 143 22 q 100 123 86 22 l 193 842 l 281 842 l 283 863 l -25 863 l -28 842 l 53 842 l -37 157 q -3 46 -45 92 q 106 0 39 0 l 212 0 q 309 28 263 0 q 397 0 347 0 l 503 0 q 625 46 570 0 q 686 157 678 92 l 724 446 l 725 446 q 727 469 726 458 l 785 912 q 855 1019 796 1000 l 924 1034 l 929 1036 l 823 1036 z "},"X":{"ha":551,"x_min":-106,"x_max":502,"o":"m 393 842 l 499 842 l 502 863 l 300 863 l 298 842 l 370 842 l 252 590 l 205 863 l 5 863 l 3 842 l 62 842 l 144 361 l -15 22 l -104 22 l -106 0 l 96 0 l 99 22 l 7 22 l 151 326 l 206 0 l 390 0 l 393 22 l 349 22 l 258 555 l 393 842 z "},"Y":{"ha":576,"x_min":-96,"x_max":584,"o":"m 73 -124 q 75 -118 73 -121 q 155 -69 82 -96 q 235 -41 237 -39 l 199 -308 q 130 -410 186 -410 l 92 -410 q 52 -383 62 -410 q 49 -308 42 -357 l 73 -124 m 260 865 l 258 844 l 349 844 l 256 123 q 254 115 256 121 l 254 115 q 253 107 254 113 q 186 22 238 22 l 149 22 q 104 123 92 22 l 198 844 l 198 844 l 201 865 l -31 865 l -33 844 l 58 844 l -31 157 q 2 46 -39 92 q 111 0 44 0 l 239 0 q 226 -14 236 -9 q 140 -43 204 -22 q -26 -117 11 -86 q -81 -231 -72 -157 l -87 -274 q -54 -385 -96 -339 q 55 -431 -12 -431 l 161 -431 q 282 -385 229 -431 q 345 -274 336 -339 l 490 844 l 581 844 l 584 865 l 260 865 z "},"Z":{"ha":540,"x_min":-58,"x_max":497,"o":"m 256 100 q 200 22 245 23 l 199 22 l 105 22 l 497 863 l 60 863 l 35 671 l 176 671 l 187 763 q 243 841 197 840 l 243 842 l 334 842 l -58 0 l 382 0 l 385 14 l 385 14 l 408 193 l 267 193 l 256 100 z "},"^":{"ha":443,"x_min":72,"x_max":448,"o":"m 333 893 q 302 905 321 904 q 275 905 291 909 q 243 890 258 901 l 109 794 q 80 762 89 780 q 81 731 72 743 l 81 730 q 111 720 90 718 q 151 737 131 722 l 258 812 l 355 728 q 391 717 370 715 q 429 735 414 719 l 431 736 q 447 772 446 752 q 433 806 448 793 l 333 893 z "},"`":{"ha":437,"x_min":117,"x_max":412,"o":"m 130 876 q 122 835 117 856 q 145 804 126 814 l 176 789 q 280 753 207 772 q 378 747 367 730 l 402 788 q 346 861 412 805 q 259 924 290 909 l 228 940 q 188 943 210 949 q 154 916 166 935 l 130 876 z "},"a":{"ha":536,"x_min":-64,"x_max":428,"o":"m 124 22 q 81 123 67 22 l 104 307 q 106 313 105 311 q 187 363 114 335 q 267 391 269 393 l 231 123 q 161 22 218 22 l 124 22 m 377 0 q 366 49 368 27 q 368 94 363 71 l 389 258 l 389 258 l 419 490 q 387 602 428 555 q 277 648 345 648 l 171 648 q 50 602 104 648 q -12 490 -3 555 l -20 431 l 121 431 l 132 524 q 203 626 146 626 l 240 626 q 283 524 297 626 l 272 433 q 258 418 269 422 q 172 389 235 410 q 6 314 43 345 q -50 201 -40 274 l -56 157 q -22 46 -64 92 q 87 0 20 0 l 180 0 q 209 9 196 1 q 228 26 215 13 q 236 1 231 12 l 377 0 z "},"b":{"ha":572,"x_min":-53,"x_max":446,"o":"m 250 123 q 180 22 237 22 l 142 22 q 98 123 85 22 l 151 524 q 221 626 164 626 l 258 626 q 302 524 315 626 l 250 123 m 189 648 q 166 646 179 648 l 223 1079 l -9 1079 l -12 1057 l 80 1057 l -53 37 q 7 6 -32 12 q 83 0 47 -1 l 211 0 q 332 46 279 0 q 394 157 386 92 l 437 490 q 404 602 446 555 q 295 648 363 648 l 189 648 z "},"c":{"ha":570,"x_min":-46,"x_max":453,"o":"m 261 216 l 249 123 q 179 22 236 22 l 142 22 q 98 123 85 22 l 150 524 q 220 626 163 626 l 258 626 q 301 524 315 626 l 289 431 l 429 431 l 453 610 q 392 642 431 635 q 317 648 353 648 l 189 648 q 68 602 121 648 q 5 490 14 555 l -38 157 q -5 46 -46 92 q 104 0 37 0 l 233 0 q 309 6 269 -1 q 378 37 351 12 l 401 216 l 261 216 z "},"d":{"ha":572,"x_min":-46,"x_max":514,"o":"m 249 122 q 179 20 236 20 l 142 20 q 98 122 85 20 l 150 522 q 220 624 163 624 l 258 624 q 301 522 315 624 l 249 122 m 389 22 q 384 49 385 37 q 386 94 381 71 l 514 1079 l 282 1079 l 279 1057 l 371 1057 l 317 644 q 295 646 304 646 l 189 646 q 68 600 121 646 q 5 488 14 553 l -38 155 q -5 44 -46 90 q 104 -2 37 -2 l 193 -2 q 222 7 209 -1 q 237 20 229 12 q 245 26 243 26 q 245 26 245 26 q 254 1 249 13 l 271 1 l 271 0 l 465 0 l 468 22 l 389 22 z "},"e":{"ha":544,"x_min":-47,"x_max":445,"o":"m 257 626 q 300 524 314 626 l 278 349 l 127 349 l 149 524 q 220 626 163 626 l 257 626 m 415 327 l 436 490 q 404 602 445 555 q 294 648 361 648 l 188 648 q 67 602 121 648 q 5 490 14 555 l -39 157 q -5 46 -47 92 q 104 0 37 0 l 210 0 q 331 46 277 0 q 393 157 385 92 l 401 216 l 260 216 l 248 123 q 178 22 235 22 l 141 22 q 98 123 84 22 l 124 327 l 415 327 z "},"f":{"ha":288,"x_min":-241,"x_max":353,"o":"m 347 1078 l 353 1079 l 247 1079 q 126 1033 180 1079 q 64 922 73 987 l 28 648 l -58 648 l -61 626 l 26 626 l -1 417 l -3 417 q -5 394 -4 406 l -97 -308 q -168 -414 -109 -396 l -236 -430 l -241 -431 l -136 -431 q -14 -385 -68 -431 q 47 -274 39 -339 l 113 231 l 115 231 q 117 253 116 242 l 165 626 l 262 626 l 266 648 l 168 648 l 208 956 q 279 1061 220 1044 l 347 1078 z "},"g":{"ha":572,"x_min":-104,"x_max":451,"o":"m 140 22 q 96 123 83 22 l 149 524 q 219 626 162 626 l 256 626 q 300 524 313 626 l 248 123 q 246 115 248 122 l 245 115 q 245 108 245 113 q 178 22 230 22 l 140 22 m 451 610 q 391 642 430 635 q 316 648 351 648 l 187 648 q 66 602 120 648 q 4 490 12 555 l -39 157 q -6 46 -47 92 q 103 0 36 0 l 231 0 l 191 -308 q 121 -410 178 -410 l 84 -410 q 41 -308 27 -410 l 52 -216 l -87 -216 l -96 -274 q -62 -385 -104 -339 q 47 -431 -20 -431 l 153 -431 q 274 -385 220 -431 q 336 -274 328 -339 l 451 610 z "},"h":{"ha":570,"x_min":-148,"x_max":470,"o":"m 378 22 l 439 492 q 406 603 448 557 q 297 649 364 649 l 208 649 q 180 640 193 648 q 165 629 173 635 l 224 1079 l -7 1079 l -11 1057 l 81 1057 l -54 22 l -145 22 l -148 0 l 176 0 l 178 22 l 87 22 l 153 526 q 222 628 165 628 l 260 628 q 303 526 317 628 l 238 22 l 238 22 l 235 0 l 467 0 l 470 22 l 378 22 z "},"i":{"ha":290,"x_min":-144,"x_max":201,"o":"m 133 758 q 172 773 155 758 q 193 810 190 789 l 199 855 q 188 892 201 877 q 152 908 174 908 l 115 908 q 76 892 94 908 q 56 855 58 877 l 50 810 q 60 773 47 789 q 96 758 74 758 l 133 758 m 90 22 l 172 648 l -60 648 l -63 626 l 28 626 l -50 22 l -142 22 l -144 0 l 179 0 l 182 22 l 90 22 z "},"j":{"ha":284,"x_min":-244,"x_max":195,"o":"m 165 648 l -67 648 l -70 626 l 22 626 l -5 417 l -6 417 q -8 394 -7 406 l -100 -308 q -170 -414 -111 -396 l -239 -430 l -244 -431 l -138 -431 q -17 -385 -71 -431 q 45 -274 37 -339 l 165 648 m 126 758 q 165 773 148 758 q 186 810 183 789 l 192 855 q 181 892 195 877 q 146 908 168 908 l 109 908 q 69 892 87 908 q 49 855 52 877 l 43 810 q 54 773 40 789 q 90 758 67 758 l 126 758 z "},"k":{"ha":537,"x_min":-149,"x_max":519,"o":"m 227 423 q 220 416 224 420 l 235 433 q 229 423 233 428 l 227 423 m 237 435 l 409 626 l 517 626 l 519 648 l 304 648 l 301 626 l 382 626 l 128 345 l 223 1079 l -8 1079 l -12 1057 l 81 1057 l -54 22 l -146 22 l -149 0 l 175 0 l 178 22 l 86 22 l 123 309 l 129 315 l 273 0 l 435 0 l 435 0 l 479 0 l 481 22 l 425 22 l 237 435 z "},"l":{"ha":283,"x_min":-151,"x_max":220,"o":"m 83 22 l 140 454 l 140 454 l 220 1079 l -11 1079 l -14 1057 l 78 1057 l -57 22 l -149 22 l -151 0 l 172 0 l 175 22 l 83 22 z "},"m":{"ha":867,"x_min":-151,"x_max":758,"o":"m 666 22 l 727 492 q 694 603 736 557 q 585 649 652 649 l 479 649 q 382 621 428 649 q 294 649 345 649 l 205 649 q 176 640 189 648 q 161 627 169 635 q 153 621 155 621 l 153 621 q 144 646 149 635 l 127 646 l 127 648 l -67 648 l -70 626 l 9 626 q 14 598 14 610 q 12 553 17 576 l -57 22 l -149 22 l -151 0 l 172 0 l 175 22 l 83 22 l 149 526 q 219 628 162 628 l 256 628 q 300 527 313 628 l 235 22 l 232 0 l 464 0 l 467 22 l 375 22 l 440 526 q 455 585 445 562 l 455 586 q 458 593 457 590 q 460 595 458 593 q 463 600 461 598 l 464 602 q 467 606 466 604 q 469 608 467 607 q 471 612 470 610 q 473 613 472 612 q 476 616 475 614 q 478 617 477 617 q 481 620 479 618 q 483 621 482 621 q 487 623 485 622 q 488 623 488 623 q 492 625 490 624 l 494 625 q 498 627 495 626 q 499 627 500 627 q 504 627 501 627 q 505 627 505 627 q 511 628 507 628 l 547 628 q 591 526 604 628 l 526 22 l 526 22 l 523 0 l 755 0 l 758 22 l 666 22 z "},"n":{"ha":572,"x_min":-151,"x_max":467,"o":"m 376 22 l 437 492 q 404 603 445 557 q 294 649 361 649 l 205 649 q 177 640 190 648 q 162 627 170 635 q 154 621 156 621 l 153 621 q 145 646 150 635 l 127 646 l 127 648 l -66 648 l -69 626 l 10 626 q 16 598 14 610 q 13 553 18 576 l -56 22 l -148 22 l -151 0 l 173 0 l 176 22 l 84 22 l 150 526 q 220 628 163 628 l 257 628 q 300 526 314 628 l 233 0 l 465 0 l 467 22 l 376 22 z "},"o":{"ha":545,"x_min":-45,"x_max":446,"o":"m 250 123 q 180 22 237 22 l 142 22 q 99 123 85 22 l 151 524 q 221 626 164 626 l 258 626 q 302 524 315 626 l 250 123 m 189 648 q 68 602 122 648 q 6 490 15 555 l -37 157 q -4 46 -45 92 q 105 0 38 0 l 212 0 q 332 46 279 0 q 395 157 386 92 l 437 490 q 405 602 446 555 q 296 648 363 648 l 189 648 z "},"p":{"ha":572,"x_min":-202,"x_max":450,"o":"m 253 125 q 183 24 240 24 l 146 24 q 102 125 89 24 l 154 526 q 224 628 168 628 l 262 628 q 305 526 319 628 l 253 125 m 210 649 q 182 640 194 648 q 166 627 174 635 q 159 621 160 621 l 158 621 q 149 646 155 635 l 132 646 l 132 648 l -62 648 l -64 626 l 14 626 q 20 598 18 610 q 18 553 22 576 l -108 -410 l -199 -410 l -202 -431 l 121 -431 l 124 -410 l 33 -410 l 86 4 q 109 2 99 2 l 215 2 q 336 48 282 2 q 398 159 389 94 l 441 492 q 408 603 450 557 q 299 649 366 649 l 210 649 z "},"q":{"ha":574,"x_min":-43,"x_max":553,"o":"m 252 123 q 182 22 239 22 l 145 22 q 102 123 88 22 l 153 524 q 224 626 167 626 l 261 626 q 304 524 318 626 l 252 123 m 550 626 l 553 648 l 365 648 l 365 647 l 341 647 q 326 621 333 635 l 325 621 q 319 627 323 621 q 307 640 313 635 q 292 648 301 645 l 192 648 q 71 602 125 648 q 9 490 18 555 l -35 157 q -1 46 -43 92 q 108 0 41 0 l 214 0 q 237 2 224 0 l 183 -410 l 92 -410 l 89 -431 l 412 -431 l 415 -410 l 323 -410 l 449 554 q 458 599 450 577 q 471 626 463 610 l 550 626 z "},"r":{"ha":441,"x_min":-148,"x_max":412,"o":"m 351 642 q 276 648 311 648 l 254 648 q 164 617 220 648 l 168 648 l -64 648 l -66 626 l 25 626 l -54 22 l -145 22 l -148 0 l 176 0 l 178 22 l 87 22 l 143 456 l 143 457 l 159 576 q 199 597 176 591 q 260 524 273 623 l 248 431 l 389 431 l 412 610 q 351 642 390 635 z "},"s":{"ha":532,"x_min":-68,"x_max":424,"o":"m 77 535 q 119 602 82 576 q 197 626 153 626 q 229 626 197 626 q 273 524 286 626 l 263 453 l 404 453 l 424 610 q 363 642 403 635 q 289 648 324 648 l 195 648 q 51 593 109 648 q -16 454 -5 540 q 130 250 -33 317 q 241 203 243 203 q 286 138 291 176 q 151 22 271 25 l 151 22 l 127 22 q 83 123 70 22 l 92 195 l -48 195 l -68 37 q -8 6 -47 12 q 67 0 31 -1 l 150 0 q 153 0 151 0 l 155 0 q 317 64 255 0 q 386 217 374 123 q 347 336 395 291 q 234 395 314 366 q 120 444 144 427 q 77 535 69 479 z "},"t":{"ha":338,"x_min":-21,"x_max":306,"o":"m 231 1 l 166 18 q 123 123 112 35 l 189 626 l 303 626 l 306 648 l 191 648 l 224 902 l 81 880 l 51 648 l -18 648 l -20 626 l 48 626 l -13 157 q 20 46 -21 92 q 130 0 62 0 l 236 0 l 231 1 z "},"u":{"ha":572,"x_min":-68,"x_max":468,"o":"m 23 628 l -38 157 q -5 46 -46 92 q 104 0 37 0 l 193 0 q 222 9 209 1 q 237 22 229 14 q 244 28 243 28 q 245 28 244 28 q 254 3 248 15 l 271 3 l 271 2 l 465 2 l 468 24 l 389 24 q 383 51 385 39 q 386 96 381 73 l 457 649 l 226 649 l 222 628 l 315 628 l 249 123 q 178 22 235 22 l 142 22 q 98 123 85 22 l 163 628 l 163 628 l 166 649 l -66 649 l -68 628 l 23 628 z "},"v":{"ha":544,"x_min":-71,"x_max":552,"o":"m 552 648 l 336 648 l 334 626 l 421 626 l 246 233 l 172 626 l 253 626 l 256 648 l -68 648 l -71 626 l 25 626 l 143 1 l 143 0 l 165 0 l 444 626 l 549 626 l 552 648 z "},"w":{"ha":842,"x_min":-54,"x_max":881,"o":"m 774 644 q 654 598 707 644 q 591 487 600 552 l 589 471 l 589 471 l 544 121 q 473 18 530 18 l 437 18 q 393 121 380 18 l 461 644 l 321 644 l 252 121 q 182 18 239 18 l 145 18 q 102 121 88 18 l 167 623 l 255 623 l 258 644 l -52 644 l -54 623 l 26 623 l -35 154 q -1 43 -43 89 q 108 -3 41 -3 l 214 -3 q 310 25 264 -3 q 399 -3 349 -3 l 505 -3 q 626 43 572 -3 q 688 154 680 89 l 703 270 l 705 270 q 707 293 705 281 l 736 520 q 807 627 747 609 l 875 642 l 881 644 l 774 644 z "},"x":{"ha":538,"x_min":-132,"x_max":449,"o":"m 248 648 l 245 626 l 320 626 l 209 432 l 150 648 l -47 648 l -50 626 l 4 626 l 106 254 l -27 22 l -129 22 l -132 0 l 71 0 l 74 22 l -3 22 l 114 226 l 176 0 l 365 0 l 368 22 l 321 22 l 216 404 l 344 626 l 446 626 l 449 648 l 248 648 z "},"y":{"ha":574,"x_min":-104,"x_max":455,"o":"m 455 649 l 224 649 l 221 628 l 313 628 l 247 123 q 245 115 247 122 l 245 115 q 244 108 245 113 q 177 22 229 22 l 140 22 q 96 123 83 22 l 161 628 l 161 628 l 164 649 l -68 649 l -71 628 l 21 628 l -12 372 l -12 372 l -40 157 q -7 46 -48 92 q 102 0 35 0 l 231 0 l 191 -308 q 121 -410 178 -410 l 83 -410 q 40 -308 26 -410 l 52 -216 l -88 -216 l -96 -274 q -63 -385 -104 -339 q 46 -431 -21 -431 l 153 -431 q 273 -385 220 -431 q 336 -274 327 -339 l 455 649 z "},"z":{"ha":562,"x_min":-60,"x_max":468,"o":"m 254 100 q 199 22 244 23 l 198 22 l 106 22 l 468 648 l 31 648 l 5 455 l 146 455 l 158 547 q 214 625 168 625 l 214 626 l 302 626 l -60 0 l 381 0 l 406 193 l 266 193 l 254 100 z "},"~":{"ha":493,"x_min":15,"x_max":515,"o":"m 510 896 l 452 853 q 335 873 398 819 q 292 899 314 890 q 191 906 248 916 q 91 854 127 895 l 15 770 l 20 774 l 73 806 q 208 785 126 855 l 215 779 l 215 779 l 211 783 q 324 753 258 743 q 439 815 391 762 l 515 899 l 510 896 z "},"¡":{"ha":273,"x_min":-48,"x_max":194,"o":"m 126 713 q 165 728 148 713 q 186 766 183 744 l 191 810 q 180 848 194 832 q 144 863 167 863 l 108 863 q 68 847 86 863 q 48 810 51 831 l 43 765 q 54 728 40 743 q 90 712 67 712 l 126 713 m 38 0 q 77 16 60 1 q 98 54 95 32 l 103 98 q 120 362 111 163 q 113 604 132 604 l 76 604 q 8 361 58 604 q -40 98 -32 163 l -45 53 q -35 16 -48 31 q 1 0 -21 0 l 38 0 z "},"¨":{"ha":470,"x_min":102,"x_max":450,"o":"m 441 810 q 421 773 439 789 q 382 758 404 758 l 345 758 q 309 773 323 758 q 299 810 296 789 l 304 855 q 325 892 307 877 q 365 908 342 908 l 401 908 q 437 892 423 908 q 448 855 450 877 l 441 810 m 248 810 q 227 773 245 789 q 187 758 210 758 l 151 758 q 115 773 129 758 q 104 810 102 789 l 111 855 q 131 892 113 877 q 170 908 149 908 l 207 908 q 243 892 229 908 q 253 855 256 877 l 248 810 z "},"©":{"ha":2733,"x_min":-45,"x_max":2690,"o":"m 1941 -187 q 1568 -24 1710 -187 q 1456 370 1426 139 q 1670 764 1486 601 q 2086 928 1855 928 q 2458 764 2317 928 q 2571 370 2601 601 q 2356 -24 2541 139 q 1941 -187 2172 -187 m 2097 1011 q 1619 823 1832 1011 q 1373 370 1407 635 q 1501 -83 1338 104 q 1930 -271 1665 -271 q 2408 -83 2196 -271 q 2655 370 2620 104 q 2526 823 2690 635 q 2097 1011 2363 1011 m 558 -187 q 185 -24 328 -187 q 74 370 44 139 q 288 764 104 601 q 703 928 473 928 q 1076 764 935 928 q 1188 370 1218 601 q 974 -24 1158 139 q 558 -187 789 -187 m 714 1011 q 237 823 449 1011 q -10 370 24 635 q 119 -83 -45 104 q 547 -271 282 -271 q 1025 -83 813 -271 q 1272 370 1238 104 q 1143 823 1307 635 q 714 1011 980 1011 m 2400 515 q 2393 540 2402 530 q 2370 550 2384 550 l 2330 550 q 2303 540 2315 550 q 2290 515 2292 530 l 2256 243 l 2180 243 q 2157 253 2167 243 q 2150 276 2148 262 l 2150 276 l 2150 278 l 2181 517 q 2174 542 2183 532 q 2151 552 2165 552 l 2111 552 q 2085 542 2096 552 q 2072 517 2074 532 l 2040 271 q 2060 197 2035 228 q 2130 167 2087 167 l 2245 167 l 2239 115 q 2203 92 2228 92 l 2163 92 q 2132 119 2135 92 q 2102 146 2129 146 l 2060 146 q 2035 136 2046 146 q 2021 112 2023 126 q 2045 43 2019 71 q 2112 15 2071 15 l 2233 15 q 2299 37 2268 15 q 2342 91 2329 58 q 2345 98 2344 94 q 2351 119 2349 109 l 2353 141 q 2354 160 2355 151 l 2400 515 m 1889 280 q 1876 255 1887 265 q 1850 245 1864 245 l 1775 245 l 1801 445 q 1803 448 1802 446 l 1803 448 q 1840 475 1811 475 l 1880 475 q 1903 465 1894 475 q 1910 440 1912 455 l 1889 280 m 1815 552 l 1831 671 q 1824 695 1832 685 q 1800 705 1815 705 l 1760 705 q 1734 695 1746 705 q 1721 671 1723 685 l 1660 203 q 1667 178 1658 189 q 1690 168 1676 168 l 1880 168 q 1958 199 1923 168 q 1998 273 1992 229 l 2022 452 q 2021 456 2022 453 q 1997 524 2023 496 q 1930 552 1971 552 l 1815 552 m 751 441 q 766 465 754 455 q 791 475 777 475 l 831 475 q 862 448 859 475 l 862 448 q 892 420 865 420 l 934 420 q 960 431 948 420 q 972 455 970 441 l 972 455 q 949 524 975 496 q 882 552 923 552 l 762 552 q 686 524 720 552 q 645 456 653 496 q 644 452 644 454 l 621 273 q 642 199 615 229 q 711 168 668 168 l 831 168 q 907 197 873 168 q 948 265 940 224 l 948 265 q 941 290 950 279 q 918 300 932 300 l 876 300 q 839 273 848 300 l 839 273 q 802 245 829 245 l 762 245 q 739 255 747 245 q 731 279 730 265 l 751 441 m 504 300 q 467 273 476 300 q 429 245 457 245 l 389 245 q 366 255 374 245 q 359 279 357 265 l 379 441 q 393 465 382 455 q 419 475 404 475 l 459 475 q 490 448 487 475 q 520 420 492 420 l 562 420 q 587 431 576 420 q 600 455 598 441 l 600 455 q 576 524 603 496 q 509 552 551 552 l 389 552 q 314 524 348 552 q 272 456 281 496 q 272 452 272 454 l 248 273 q 269 199 243 229 q 338 168 296 168 l 459 168 q 534 197 500 168 q 576 265 568 224 l 576 265 q 568 290 578 279 q 545 300 559 300 l 504 300 z "},"´":{"ha":510,"x_min":134,"x_max":443,"o":"m 436 877 q 433 836 443 857 q 401 806 422 815 l 367 790 q 254 755 332 774 q 155 749 161 732 l 140 789 q 216 863 134 806 q 319 926 284 909 l 354 941 q 395 944 375 951 q 422 917 414 937 l 436 877 z "},"·":{"ha":349,"x_min":-28,"x_max":127,"o":"m 118 54 q 98 16 115 31 q 58 0 80 0 l 21 0 q -14 16 -1 0 q -25 54 -28 31 l -19 98 q 1 136 -16 120 q 41 151 19 151 l 77 151 q 113 136 100 151 q 123 98 127 120 l 118 54 z "},"∙":{"ha":349,"x_min":-28,"x_max":127,"o":"m 118 54 q 98 16 115 31 q 58 0 80 0 l 21 0 q -14 16 -1 0 q -25 54 -28 31 l -19 98 q 1 136 -16 120 q 41 151 19 151 l 77 151 q 113 136 100 151 q 123 98 127 120 l 118 54 z "},"¿":{"ha":554,"x_min":-49,"x_max":412,"o":"m 208 0 q 328 45 275 -1 q 391 157 382 92 l 410 295 q 411 323 412 309 l 273 323 l 246 123 q 176 22 233 22 l 139 22 q 96 124 82 22 l 125 341 q 165 435 134 414 q 268 488 224 444 q 319 589 312 531 l 321 604 l 182 604 l 175 555 q 117 448 163 461 l 117 448 q 25 393 64 434 q -22 297 -14 351 l -40 159 q -7 47 -49 93 q 102 1 34 1 l 208 0 m 283 712 q 323 728 305 712 q 344 765 340 743 l 349 810 q 339 847 353 831 q 304 863 326 863 l 267 863 q 227 848 245 863 q 207 810 210 832 l 201 766 q 212 728 198 744 q 247 712 224 713 l 283 712 z "},"À":{"ha":570,"x_min":-207,"x_max":476,"o":"m 130 349 l 180 739 q 251 842 194 842 l 288 842 q 332 739 345 842 l 281 349 l 130 349 m 378 22 l 467 706 q 434 817 476 771 q 325 863 393 863 l 219 863 q 98 817 152 863 q 36 706 44 771 l -1 417 l -3 417 q -5 394 -3 406 l -11 349 l -87 349 l -90 327 l -14 327 l -62 -49 q -133 -155 -74 -137 l -201 -171 l -207 -172 l -101 -172 q 20 -126 -33 -172 q 82 -15 74 -81 l 84 0 l 84 0 l 127 327 l 278 327 l 238 22 l 151 22 l 147 0 l 456 0 l 459 22 l 378 22 m 152 1045 q 144 1004 140 1025 q 168 974 149 983 l 198 958 q 302 923 229 942 q 400 917 389 900 l 425 958 q 368 1031 435 975 q 281 1094 312 1078 l 250 1109 q 210 1112 232 1119 q 176 1085 189 1105 l 152 1045 z "},"Á":{"ha":570,"x_min":-207,"x_max":476,"o":"m 130 349 l 180 739 q 251 842 194 842 l 288 842 q 332 739 345 842 l 281 349 l 130 349 m 378 22 l 467 706 q 434 817 476 771 q 325 863 393 863 l 219 863 q 98 817 152 863 q 36 706 44 771 l -1 417 l -3 417 q -5 394 -3 406 l -11 349 l -87 349 l -90 327 l -14 327 l -62 -49 q -133 -155 -74 -137 l -201 -171 l -207 -172 l -101 -172 q 20 -126 -33 -172 q 82 -15 74 -81 l 84 0 l 84 0 l 127 327 l 278 327 l 238 22 l 151 22 l 147 0 l 456 0 l 459 22 l 378 22 m 437 1040 q 435 999 444 1019 q 404 968 425 978 l 368 953 q 255 918 334 937 q 156 911 162 895 l 142 951 q 217 1025 136 969 q 321 1088 286 1072 l 355 1104 q 397 1107 376 1114 q 423 1080 416 1099 l 437 1040 z "},"Â":{"ha":570,"x_min":-207,"x_max":476,"o":"m 130 349 l 180 739 q 251 842 194 842 l 288 842 q 332 739 345 842 l 281 349 l 130 349 m 378 22 l 467 706 q 434 817 476 771 q 325 863 393 863 l 219 863 q 98 817 152 863 q 36 706 44 771 l -1 417 l -3 417 q -5 394 -3 406 l -11 349 l -87 349 l -90 327 l -14 327 l -62 -49 q -133 -155 -74 -137 l -201 -171 l -207 -172 l -101 -172 q 20 -126 -33 -172 q 82 -15 74 -81 l 84 0 l 84 0 l 127 327 l 278 327 l 238 22 l 151 22 l 147 0 l 456 0 l 459 22 l 378 22 m 360 1097 q 329 1108 347 1107 q 302 1108 317 1112 q 270 1093 286 1104 l 136 998 q 107 965 115 983 q 107 935 99 946 l 108 934 q 137 924 117 922 q 178 941 157 926 l 284 1016 l 381 932 q 418 920 396 918 q 456 939 440 922 l 457 939 q 473 976 473 956 q 459 1010 474 997 l 360 1097 z "},"Ã":{"ha":570,"x_min":-207,"x_max":562,"o":"m 130 349 l 180 739 q 251 842 194 842 l 288 842 q 332 739 345 842 l 281 349 l 130 349 m 378 22 l 467 706 q 434 817 476 771 q 325 863 393 863 l 219 863 q 98 817 152 863 q 36 706 44 771 l -1 417 l -3 417 q -5 394 -3 406 l -11 349 l -87 349 l -90 327 l -14 327 l -62 -49 q -133 -155 -74 -137 l -201 -171 l -207 -172 l -101 -172 q 20 -126 -33 -172 q 82 -15 74 -81 l 84 0 l 84 0 l 127 327 l 278 327 l 238 22 l 151 22 l 147 0 l 456 0 l 459 22 l 378 22 m 557 1093 l 498 1050 q 382 1069 446 1016 q 340 1095 361 1087 q 238 1103 296 1112 q 138 1051 174 1091 l 62 967 l 67 970 l 121 1002 q 255 982 174 1052 l 262 976 l 262 976 l 258 979 q 372 949 304 939 q 486 1012 438 959 l 562 1096 l 557 1093 z "},"Ä":{"ha":570,"x_min":-207,"x_max":476,"o":"m 130 349 l 180 739 q 251 842 194 842 l 288 842 q 332 739 345 842 l 281 349 l 130 349 m 378 22 l 467 706 q 434 817 476 771 q 325 863 393 863 l 219 863 q 98 817 152 863 q 36 706 44 771 l -1 417 l -3 417 q -5 394 -3 406 l -11 349 l -87 349 l -90 327 l -14 327 l -62 -49 q -133 -155 -74 -137 l -201 -171 l -207 -172 l -101 -172 q 20 -126 -33 -172 q 82 -15 74 -81 l 84 0 l 84 0 l 127 327 l 278 327 l 238 22 l 151 22 l 147 0 l 456 0 l 459 22 l 378 22 m 454 1007 q 433 970 451 985 q 394 954 416 954 l 357 954 q 322 970 336 954 q 311 1007 309 985 l 317 1052 q 338 1089 320 1074 q 377 1105 355 1105 l 414 1105 q 449 1089 435 1105 q 460 1052 463 1074 l 454 1007 m 260 1007 q 239 970 257 985 q 200 954 222 954 l 163 954 q 127 970 141 954 q 117 1007 114 985 l 123 1052 q 143 1089 125 1074 q 183 1105 161 1105 l 220 1105 q 255 1089 241 1105 q 266 1052 269 1074 l 260 1007 z "},"Å":{"ha":570,"x_min":-207,"x_max":476,"o":"m 130 349 l 180 739 q 251 842 194 842 l 288 842 q 332 739 345 842 l 281 349 l 130 349 m 378 22 l 467 706 q 434 817 476 771 q 325 863 393 863 l 219 863 q 98 817 152 863 q 36 706 44 771 l -1 417 l -3 417 q -5 394 -3 406 l -11 349 l -87 349 l -90 327 l -14 327 l -62 -49 q -133 -155 -74 -137 l -201 -171 l -207 -172 l -101 -172 q 20 -126 -33 -172 q 82 -15 74 -81 l 84 0 l 84 0 l 127 327 l 278 327 l 238 22 l 151 22 l 147 0 l 456 0 l 459 22 l 378 22 m 361 981 q 340 944 357 960 q 300 928 322 928 l 264 928 q 229 944 242 928 q 218 981 215 960 l 223 1026 q 244 1063 227 1048 q 283 1079 261 1079 l 320 1079 q 355 1063 342 1079 q 366 1026 369 1048 l 361 981 m 281 1101 q 229 1081 252 1101 q 203 1032 206 1061 l 195 975 q 209 927 191 947 q 256 907 227 907 l 303 907 q 355 927 332 907 q 381 975 378 947 l 389 1032 q 374 1081 393 1061 q 328 1101 357 1101 l 281 1101 z "},"È":{"ha":570,"x_min":-144,"x_max":488,"o":"m 463 671 l 488 863 l -33 863 l -35 842 l 44 842 q 50 814 48 826 q 47 770 52 793 l -50 22 l -142 22 l -144 0 l 376 0 l 401 193 l 261 193 l 249 100 q 193 22 239 23 l 193 22 l 147 22 q 104 123 90 22 l 130 327 l 279 327 l 283 349 l 133 349 l 184 739 q 189 770 186 755 l 198 842 l 300 842 l 300 841 q 335 763 345 840 l 323 671 l 463 671 m 151 1045 q 144 1004 139 1025 q 167 974 149 983 l 198 958 q 302 923 229 942 q 399 917 389 900 l 424 958 q 368 1031 435 975 q 281 1094 312 1078 l 250 1109 q 210 1112 231 1119 q 176 1085 188 1105 l 151 1045 z "},"É":{"ha":570,"x_min":-144,"x_max":488,"o":"m 463 671 l 488 863 l -33 863 l -35 842 l 44 842 q 50 814 48 826 q 47 770 52 793 l -50 22 l -142 22 l -144 0 l 376 0 l 401 193 l 261 193 l 249 100 q 193 22 239 23 l 193 22 l 147 22 q 104 123 90 22 l 130 327 l 279 327 l 283 349 l 133 349 l 184 739 q 189 770 186 755 l 198 842 l 300 842 l 300 841 q 335 763 345 840 l 323 671 l 463 671 m 437 1040 q 434 999 444 1019 q 403 968 424 978 l 368 953 q 255 918 333 937 q 156 911 162 895 l 142 951 q 217 1025 136 969 q 320 1088 286 1072 l 355 1104 q 396 1107 376 1114 q 423 1080 416 1099 l 437 1040 z "},"Ê":{"ha":570,"x_min":-144,"x_max":488,"o":"m 463 671 l 488 863 l -33 863 l -35 842 l 44 842 q 50 814 48 826 q 47 770 52 793 l -50 22 l -142 22 l -144 0 l 376 0 l 401 193 l 261 193 l 249 100 q 193 22 239 23 l 193 22 l 147 22 q 104 123 90 22 l 130 327 l 279 327 l 283 349 l 133 349 l 184 739 q 189 770 186 755 l 198 842 l 300 842 l 300 841 q 335 763 345 840 l 323 671 l 463 671 m 346 1097 q 315 1108 334 1107 q 288 1108 304 1112 q 256 1093 271 1104 l 122 998 q 93 965 102 983 q 94 935 85 946 l 94 934 q 123 924 102 922 q 164 941 144 926 l 271 1016 l 368 932 q 404 920 382 918 q 442 939 427 922 l 444 939 q 460 976 459 956 q 445 1010 460 997 l 346 1097 z "},"Ë":{"ha":570,"x_min":-144,"x_max":488,"o":"m 463 671 l 488 863 l -33 863 l -35 842 l 44 842 q 50 814 48 826 q 47 770 52 793 l -50 22 l -142 22 l -144 0 l 376 0 l 401 193 l 261 193 l 249 100 q 193 22 239 23 l 193 22 l 147 22 q 104 123 90 22 l 130 327 l 279 327 l 283 349 l 133 349 l 184 739 q 189 770 186 755 l 198 842 l 300 842 l 300 841 q 335 763 345 840 l 323 671 l 463 671 m 447 1007 q 427 970 444 985 q 387 954 409 954 l 351 954 q 315 970 328 954 q 304 1007 301 985 l 310 1052 q 330 1089 313 1074 q 370 1105 348 1105 l 406 1105 q 442 1089 429 1105 q 453 1052 456 1074 l 447 1007 m 253 1007 q 233 970 250 985 q 193 954 215 954 l 156 954 q 121 970 134 954 q 110 1007 107 985 l 116 1052 q 136 1089 119 1074 q 176 1105 154 1105 l 212 1105 q 248 1089 235 1105 q 258 1052 261 1074 l 253 1007 z "},"Ì":{"ha":289,"x_min":-148,"x_max":286,"o":"m 87 22 l 180 739 q 186 770 182 755 l 195 842 l 273 842 l 275 863 l 219 863 q 208 863 216 863 l 208 863 l -36 863 l -39 842 l 41 842 q 46 814 45 826 q 44 770 48 793 l 5 475 l 5 475 l -54 22 l -145 22 l -148 0 l 176 0 l 178 22 l 87 22 m 2 1045 q -5 1004 -10 1025 q 18 974 -1 983 l 49 958 q 153 923 79 942 q 250 917 239 900 l 275 958 q 218 1031 286 975 q 132 1094 162 1078 l 101 1109 q 60 1112 82 1119 q 26 1085 39 1105 l 2 1045 z "},"Í":{"ha":289,"x_min":-148,"x_max":315,"o":"m 87 22 l 180 739 q 186 770 182 755 l 195 842 l 273 842 l 275 863 l 219 863 q 208 863 216 863 l 208 863 l -36 863 l -39 842 l 41 842 q 46 814 45 826 q 44 770 48 793 l 5 475 l 5 475 l -54 22 l -145 22 l -148 0 l 176 0 l 178 22 l 87 22 m 308 1040 q 305 999 315 1019 q 274 968 295 978 l 239 953 q 125 918 204 937 q 26 911 33 895 l 13 951 q 88 1025 7 969 q 191 1088 156 1072 l 226 1104 q 267 1107 248 1114 q 294 1080 287 1099 l 308 1040 z "},"Î":{"ha":289,"x_min":-148,"x_max":338,"o":"m 87 22 l 180 739 q 186 770 182 755 l 195 842 l 273 842 l 275 863 l 219 863 q 208 863 216 863 l 208 863 l -36 863 l -39 842 l 41 842 q 46 814 45 826 q 44 770 48 793 l 5 475 l 5 475 l -54 22 l -145 22 l -148 0 l 176 0 l 178 22 l 87 22 m 224 1097 q 193 1108 211 1107 q 165 1108 181 1112 q 134 1093 149 1104 l -1 998 q -29 965 -21 983 q -29 935 -37 946 l -28 934 q 1 924 -20 922 q 42 941 21 926 l 149 1016 l 245 932 q 282 920 260 918 q 320 939 304 922 l 321 939 q 338 976 337 956 q 323 1010 338 997 l 224 1097 z "},"Ï":{"ha":289,"x_min":-148,"x_max":326,"o":"m 87 22 l 180 739 q 186 770 182 755 l 195 842 l 273 842 l 275 863 l 219 863 q 208 863 216 863 l 208 863 l -36 863 l -39 842 l 41 842 q 46 814 45 826 q 44 770 48 793 l 5 475 l 5 475 l -54 22 l -145 22 l -148 0 l 176 0 l 178 22 l 87 22 m 318 1007 q 298 970 315 985 q 258 954 280 954 l 221 954 q 186 970 199 954 q 175 1007 172 985 l 181 1052 q 201 1089 184 1074 q 241 1105 219 1105 l 277 1105 q 313 1089 300 1105 q 323 1052 326 1074 l 318 1007 m 123 1007 q 103 970 121 985 q 64 954 85 954 l 27 954 q -8 970 5 954 q -19 1007 -22 985 l -14 1052 q 7 1089 -10 1074 q 47 1105 24 1105 l 83 1105 q 119 1089 105 1105 q 130 1052 132 1074 l 123 1007 z "},"Ñ":{"ha":584,"x_min":-144,"x_max":549,"o":"m 382 22 l 471 708 q 438 819 480 773 q 329 865 397 865 l 241 865 q 212 856 224 864 q 197 843 204 851 q 189 836 191 837 l 189 837 q 180 862 185 850 l 162 862 l 162 863 l -32 863 l -35 842 l 45 842 q 50 814 49 825 q 48 769 52 792 l -50 22 l -141 22 l -144 0 l 180 0 l 182 22 l 91 22 l 184 741 q 255 844 198 844 l 292 844 q 336 741 349 844 l 275 281 l 275 281 l 242 22 l 242 22 l 239 0 l 471 0 l 474 22 l 382 22 m 543 1093 l 485 1050 q 368 1069 431 1016 q 326 1095 347 1087 q 224 1103 281 1112 q 124 1051 160 1091 l 48 967 l 53 970 l 106 1002 q 241 982 159 1052 l 248 976 l 248 976 l 244 979 q 357 949 291 939 q 473 1012 425 959 l 549 1096 l 543 1093 z "},"Ò":{"ha":574,"x_min":-43,"x_max":476,"o":"m 252 123 q 182 22 239 22 l 144 22 q 101 123 87 22 l 123 294 l 123 294 l 181 739 q 251 842 194 842 l 288 842 q 332 739 345 842 l 252 123 m 220 863 q 98 817 152 863 q 37 706 45 771 l -35 157 q -2 46 -43 92 q 107 0 40 0 l 214 0 q 334 46 281 0 q 397 157 388 92 l 468 706 q 435 817 476 771 q 326 863 393 863 l 220 863 m 153 1045 q 146 1004 141 1025 q 169 974 150 983 l 199 958 q 304 923 231 942 q 401 917 391 900 l 426 958 q 370 1031 436 975 q 283 1094 313 1078 l 252 1109 q 212 1112 233 1119 q 178 1085 190 1105 l 153 1045 z "},"Ó":{"ha":574,"x_min":-43,"x_max":476,"o":"m 252 123 q 182 22 239 22 l 144 22 q 101 123 87 22 l 123 294 l 123 294 l 181 739 q 251 842 194 842 l 288 842 q 332 739 345 842 l 252 123 m 220 863 q 98 817 152 863 q 37 706 45 771 l -35 157 q -2 46 -43 92 q 107 0 40 0 l 214 0 q 334 46 281 0 q 397 157 388 92 l 468 706 q 435 817 476 771 q 326 863 393 863 l 220 863 m 439 1040 q 436 999 446 1019 q 405 968 426 978 l 370 953 q 256 918 335 937 q 157 911 163 895 l 143 951 q 218 1025 138 969 q 322 1088 287 1072 l 357 1104 q 398 1107 378 1114 q 425 1080 418 1099 l 439 1040 z "},"Ô":{"ha":574,"x_min":-43,"x_max":476,"o":"m 252 123 q 182 22 239 22 l 144 22 q 101 123 87 22 l 123 294 l 123 294 l 181 739 q 251 842 194 842 l 288 842 q 332 739 345 842 l 252 123 m 220 863 q 98 817 152 863 q 37 706 45 771 l -35 157 q -2 46 -43 92 q 107 0 40 0 l 214 0 q 334 46 281 0 q 397 157 388 92 l 468 706 q 435 817 476 771 q 326 863 393 863 l 220 863 m 361 1097 q 330 1108 349 1107 q 303 1108 319 1112 q 271 1093 287 1104 l 137 998 q 109 965 117 983 q 109 935 100 946 l 109 934 q 138 924 118 922 q 179 941 159 926 l 286 1016 l 382 932 q 420 920 397 918 q 458 939 441 922 l 458 939 q 475 976 475 956 q 460 1010 475 997 l 361 1097 z "},"Õ":{"ha":574,"x_min":-43,"x_max":564,"o":"m 252 123 q 182 22 239 22 l 145 22 q 102 123 88 22 l 124 294 l 124 294 l 182 739 q 252 842 195 842 l 289 842 q 333 739 346 842 l 252 123 m 220 863 q 99 817 153 863 q 37 706 45 771 l -35 157 q -1 46 -43 92 q 108 0 41 0 l 214 0 q 335 46 281 0 q 397 157 389 92 l 469 706 q 435 817 477 771 q 326 863 393 863 l 220 863 m 559 1093 l 500 1050 q 385 1069 448 1016 q 342 1095 363 1087 q 240 1103 298 1112 q 140 1051 176 1091 l 64 967 l 69 970 l 123 1002 q 257 982 176 1052 l 264 976 l 264 976 l 260 979 q 374 949 307 939 q 488 1012 440 959 l 564 1096 l 559 1093 z "},"Ö":{"ha":574,"x_min":-43,"x_max":476,"o":"m 252 123 q 182 22 239 22 l 144 22 q 101 123 87 22 l 123 294 l 123 294 l 181 739 q 251 842 194 842 l 288 842 q 332 739 345 842 l 252 123 m 220 863 q 98 817 152 863 q 37 706 45 771 l -35 157 q -2 46 -43 92 q 107 0 40 0 l 214 0 q 334 46 281 0 q 397 157 388 92 l 468 706 q 435 817 476 771 q 326 863 393 863 l 220 863 m 463 1007 q 441 970 459 985 q 402 954 425 954 l 366 954 q 330 970 344 954 q 319 1007 317 985 l 325 1052 q 346 1089 328 1074 q 385 1105 363 1105 l 422 1105 q 457 1089 444 1105 q 468 1052 471 1074 l 463 1007 m 268 1007 q 248 970 265 985 q 208 954 230 954 l 172 954 q 136 970 149 954 q 125 1007 122 985 l 131 1052 q 151 1089 134 1074 q 191 1105 169 1105 l 228 1105 q 263 1089 250 1105 q 274 1052 277 1074 l 268 1007 z "},"Ù":{"ha":695,"x_min":71,"x_max":695,"o":"m 169 844 l 79 157 q 113 46 71 92 q 222 0 155 0 l 311 0 q 339 9 327 1 q 355 22 347 14 q 362 28 361 28 q 363 28 362 28 q 371 3 366 14 l 389 3 l 389 2 l 583 2 l 585 24 l 507 24 q 501 51 503 39 q 503 96 498 73 l 600 844 l 692 844 l 695 865 l 371 865 l 368 844 l 460 844 l 366 123 q 296 22 353 22 l 259 22 q 216 123 202 22 l 309 844 l 309 844 l 312 865 l 80 865 l 77 844 l 169 844 m 263 1045 q 256 1004 251 1025 q 279 974 260 983 l 309 958 q 414 923 340 942 q 511 917 500 900 l 536 958 q 479 1031 546 975 q 393 1094 423 1078 l 361 1109 q 321 1112 343 1119 q 288 1085 300 1105 l 263 1045 z "},"Ú":{"ha":695,"x_min":71,"x_max":695,"o":"m 169 844 l 79 157 q 113 46 71 92 q 222 0 155 0 l 311 0 q 339 9 327 1 q 355 22 347 14 q 362 28 361 28 q 363 28 362 28 q 371 3 366 14 l 389 3 l 389 2 l 583 2 l 585 24 l 507 24 q 501 51 503 39 q 503 96 498 73 l 600 844 l 692 844 l 695 865 l 371 865 l 368 844 l 460 844 l 366 123 q 296 22 353 22 l 259 22 q 216 123 202 22 l 309 844 l 309 844 l 312 865 l 80 865 l 77 844 l 169 844 m 549 1040 q 546 999 555 1019 q 515 968 536 978 l 479 953 q 366 918 445 937 q 267 911 273 895 l 253 951 q 328 1025 248 969 q 432 1088 397 1072 l 467 1104 q 508 1107 488 1114 q 534 1080 528 1099 l 549 1040 z "},"Û":{"ha":695,"x_min":71,"x_max":695,"o":"m 169 844 l 79 157 q 113 46 71 92 q 222 0 155 0 l 311 0 q 339 9 327 1 q 355 22 347 14 q 362 28 361 28 q 363 28 362 28 q 371 3 366 14 l 389 3 l 389 2 l 583 2 l 585 24 l 507 24 q 501 51 503 39 q 503 96 498 73 l 600 844 l 692 844 l 695 865 l 371 865 l 368 844 l 460 844 l 366 123 q 296 22 353 22 l 259 22 q 216 123 202 22 l 309 844 l 309 844 l 312 865 l 80 865 l 77 844 l 169 844 m 471 1097 q 440 1108 458 1107 q 413 1108 429 1112 q 381 1093 397 1104 l 247 998 q 218 965 227 983 q 218 935 210 946 l 219 934 q 248 924 228 922 q 289 941 269 926 l 395 1016 l 492 932 q 530 920 507 918 q 568 939 551 922 l 568 939 q 585 976 585 956 q 570 1010 585 997 l 471 1097 z "},"Ü":{"ha":695,"x_min":71,"x_max":695,"o":"m 169 844 l 79 157 q 113 46 71 92 q 222 0 155 0 l 311 0 q 339 9 327 1 q 355 22 347 14 q 362 28 361 28 q 363 28 362 28 q 371 3 366 14 l 389 3 l 389 2 l 583 2 l 585 24 l 507 24 q 501 51 503 39 q 503 96 498 73 l 600 844 l 692 844 l 695 865 l 371 865 l 368 844 l 460 844 l 366 123 q 296 22 353 22 l 259 22 q 216 123 202 22 l 309 844 l 309 844 l 312 865 l 80 865 l 77 844 l 169 844 m 572 1007 q 551 970 569 985 q 512 954 534 954 l 475 954 q 440 970 454 954 q 429 1007 427 985 l 435 1052 q 456 1089 438 1074 q 495 1105 473 1105 l 532 1105 q 567 1089 553 1105 q 578 1052 581 1074 l 572 1007 m 378 1007 q 357 970 375 985 q 318 954 340 954 l 281 954 q 245 970 259 954 q 235 1007 232 985 l 241 1052 q 261 1089 243 1074 q 301 1105 279 1105 l 338 1105 q 373 1089 359 1105 q 384 1052 387 1074 l 378 1007 z "},"Ý":{"ha":576,"x_min":-96,"x_max":584,"o":"m 73 -124 q 75 -118 73 -121 q 155 -69 82 -96 q 235 -41 237 -39 l 199 -308 q 130 -410 186 -410 l 92 -410 q 52 -383 62 -410 q 49 -308 42 -357 l 73 -124 m 260 865 l 258 844 l 349 844 l 256 123 q 254 115 256 121 l 254 115 q 253 107 254 113 q 186 22 238 22 l 149 22 q 104 123 92 22 l 198 844 l 198 844 l 201 865 l -31 865 l -33 844 l 58 844 l -31 157 q 2 46 -39 92 q 111 0 44 0 l 239 0 q 226 -14 236 -9 q 140 -43 204 -22 q -26 -117 11 -86 q -81 -231 -72 -157 l -87 -274 q -54 -385 -96 -339 q 55 -431 -12 -431 l 161 -431 q 282 -385 229 -431 q 345 -274 336 -339 l 490 844 l 581 844 l 584 865 l 260 865 m 439 1040 q 436 999 446 1019 q 405 968 427 978 l 370 953 q 257 918 335 937 q 158 911 164 895 l 144 951 q 219 1025 138 969 q 322 1088 288 1072 l 357 1104 q 398 1107 378 1114 q 425 1080 418 1099 l 439 1040 z "},"à":{"ha":568,"x_min":-43,"x_max":448,"o":"m 144 22 q 101 123 87 22 l 125 307 q 127 313 125 311 q 208 363 134 335 q 287 391 290 393 l 252 123 q 182 22 239 22 l 144 22 m 397 0 q 386 49 389 27 q 389 94 384 71 l 410 258 l 410 258 l 439 490 q 407 602 448 555 q 298 648 365 648 l 191 648 q 71 602 124 648 q 8 490 17 555 l 1 431 l 141 431 l 153 524 q 223 626 166 626 l 260 626 q 304 524 317 626 l 292 433 q 278 418 289 422 q 192 389 256 410 q 26 314 63 345 q -29 201 -20 274 l -35 157 q -2 46 -43 92 q 107 0 40 0 l 201 0 q 229 9 216 1 q 248 26 235 13 q 256 1 252 12 l 397 0 m 129 876 q 121 835 117 856 q 144 804 126 814 l 176 789 q 279 753 206 772 q 377 747 367 730 l 401 788 q 346 861 412 805 q 259 924 290 909 l 228 940 q 188 943 210 949 q 154 916 166 935 l 129 876 z "},"á":{"ha":568,"x_min":-43,"x_max":448,"o":"m 144 22 q 101 123 87 22 l 125 307 q 127 313 125 311 q 208 363 134 335 q 287 391 290 393 l 252 123 q 182 22 239 22 l 144 22 m 397 0 q 386 49 389 27 q 389 94 384 71 l 410 258 l 410 258 l 439 490 q 407 602 448 555 q 298 648 365 648 l 191 648 q 71 602 124 648 q 8 490 17 555 l 1 431 l 141 431 l 153 524 q 223 626 166 626 l 260 626 q 304 524 317 626 l 292 433 q 278 418 289 422 q 192 389 256 410 q 26 314 63 345 q -29 201 -20 274 l -35 157 q -2 46 -43 92 q 107 0 40 0 l 201 0 q 229 9 216 1 q 248 26 235 13 q 256 1 252 12 l 397 0 m 436 877 q 433 836 443 857 q 402 806 423 815 l 367 790 q 254 755 332 774 q 155 749 161 732 l 140 789 q 216 863 134 806 q 319 926 284 909 l 354 941 q 395 944 375 951 q 422 917 415 937 l 436 877 z "},"â":{"ha":568,"x_min":-43,"x_max":448,"o":"m 144 22 q 101 123 87 22 l 125 307 q 126 313 125 311 q 208 363 135 335 q 286 391 290 393 l 252 123 q 181 22 238 22 l 144 22 m 397 0 q 386 49 389 27 q 388 94 384 71 l 439 490 q 407 602 448 555 q 297 648 364 648 l 191 648 q 71 602 123 648 q 8 490 17 555 l 1 431 l 141 431 l 153 524 q 223 626 166 626 l 260 626 q 304 524 317 626 l 292 433 q 279 418 289 422 q 192 389 256 410 q 27 314 62 345 q -29 201 -20 274 l -35 157 q -2 46 -43 92 q 107 0 39 0 l 200 0 q 229 9 217 1 q 248 26 235 13 q 256 1 252 12 l 397 0 m 333 893 q 302 905 320 904 q 275 905 290 909 q 243 890 258 901 l 109 794 q 80 762 88 780 q 80 731 71 743 l 81 730 q 110 720 90 718 q 151 737 130 722 l 257 812 l 354 728 q 391 717 369 715 q 429 735 413 719 l 430 736 q 446 772 446 752 q 432 806 447 793 l 333 893 z "},"ã":{"ha":568,"x_min":-43,"x_max":536,"o":"m 144 22 q 101 123 87 22 l 125 307 q 127 313 125 311 q 208 363 134 335 q 287 391 290 393 l 252 123 q 182 22 239 22 l 144 22 m 397 0 q 386 49 389 27 q 389 94 384 71 l 410 258 l 410 258 l 439 490 q 407 602 448 555 q 298 648 365 648 l 191 648 q 71 602 124 648 q 8 490 17 555 l 1 431 l 141 431 l 153 524 q 223 626 166 626 l 260 626 q 304 524 317 626 l 292 433 q 278 418 289 422 q 192 389 256 410 q 26 314 63 345 q -29 201 -20 274 l -35 157 q -2 46 -43 92 q 107 0 40 0 l 201 0 q 229 9 216 1 q 248 26 235 13 q 256 1 252 12 l 397 0 m 531 896 l 473 853 q 356 873 419 819 q 313 899 335 890 q 212 906 269 916 q 112 854 148 895 l 36 770 l 41 774 l 94 806 q 229 785 147 855 l 236 779 l 236 779 l 232 783 q 345 753 279 743 q 460 815 412 762 l 536 899 l 531 896 z "},"ä":{"ha":568,"x_min":-43,"x_max":450,"o":"m 144 22 q 101 123 87 22 l 125 307 q 127 313 125 311 q 208 363 134 335 q 287 391 290 393 l 252 123 q 182 22 239 22 l 144 22 m 397 0 q 386 49 389 27 q 389 94 384 71 l 410 258 l 410 258 l 439 490 q 407 602 448 555 q 298 648 365 648 l 191 648 q 71 602 124 648 q 8 490 17 555 l 1 431 l 141 431 l 153 524 q 223 626 166 626 l 260 626 q 304 524 317 626 l 292 433 q 278 418 289 422 q 192 389 256 410 q 26 314 63 345 q -29 201 -20 274 l -35 157 q -2 46 -43 92 q 107 0 40 0 l 201 0 q 229 9 216 1 q 248 26 235 13 q 256 1 252 12 l 397 0 m 441 810 q 421 773 439 789 q 381 758 404 758 l 345 758 q 309 773 323 758 q 298 810 296 789 l 304 855 q 325 892 307 877 q 364 908 342 908 l 401 908 q 437 892 423 908 q 447 855 450 877 l 441 810 m 248 810 q 227 773 244 789 q 187 758 210 758 l 151 758 q 115 773 129 758 q 104 810 102 789 l 110 855 q 131 892 113 877 q 170 908 149 908 l 207 908 q 242 892 229 908 q 253 855 256 877 l 248 810 z "},"å":{"ha":568,"x_min":-43,"x_max":448,"o":"m 144 22 q 101 123 87 22 l 125 307 q 127 313 125 311 q 208 363 134 335 q 287 391 290 393 l 252 123 q 182 22 239 22 l 144 22 m 397 0 q 386 49 389 27 q 389 94 384 71 l 410 258 l 410 258 l 439 490 q 407 602 448 555 q 298 648 365 648 l 191 648 q 71 602 124 648 q 8 490 17 555 l 1 431 l 141 431 l 153 524 q 223 626 166 626 l 260 626 q 304 524 317 626 l 292 433 q 278 418 289 422 q 192 389 256 410 q 26 314 63 345 q -29 201 -20 274 l -35 157 q -2 46 -43 92 q 107 0 40 0 l 201 0 q 229 9 216 1 q 248 26 235 13 q 256 1 252 12 l 397 0 m 351 812 q 331 774 349 790 q 292 759 313 759 l 255 759 q 219 774 233 759 q 208 812 205 790 l 214 857 q 235 894 217 878 q 274 909 252 909 l 311 909 q 347 894 333 909 q 357 857 360 878 l 351 812 m 271 931 q 220 911 243 931 q 193 863 197 891 l 186 806 q 200 758 182 777 q 246 737 218 737 l 294 737 q 345 758 323 737 q 372 806 368 777 l 380 863 q 366 911 383 891 q 319 931 348 931 l 271 931 z "},"ç":{"ha":570,"x_min":-46,"x_max":452,"o":"m 165 0 q 109 -56 163 -31 q 73 -79 87 -66 q 37 -145 44 -105 q 58 -222 29 -190 l 117 -290 l 115 -286 l 100 -243 q 157 -158 67 -199 l 165 -155 l 165 -154 l 160 -156 q 222 -87 212 -133 q 197 0 231 -41 l 233 0 q 309 6 269 -1 q 378 37 351 12 l 401 216 l 261 216 l 249 123 q 178 22 235 22 l 142 22 q 98 123 85 22 l 151 524 q 220 626 163 626 l 257 626 q 301 524 314 626 l 289 431 l 429 431 l 452 610 q 392 642 431 635 q 317 648 353 648 l 189 648 q 68 602 121 648 q 5 490 14 555 l -38 157 q -5 46 -46 92 q 104 0 37 0 l 165 0 z "},"è":{"ha":572,"x_min":-47,"x_max":445,"o":"m 257 626 q 300 524 314 626 l 278 349 l 127 349 l 149 524 q 220 626 163 626 l 257 626 m 415 327 l 436 490 q 404 602 445 555 q 294 648 361 648 l 188 648 q 67 602 121 648 q 5 490 14 555 l -39 157 q -5 46 -47 92 q 104 0 37 0 l 210 0 q 331 46 277 0 q 393 157 385 92 l 401 216 l 260 216 l 248 123 q 178 22 235 22 l 141 22 q 98 123 84 22 l 124 327 l 415 327 m 96 876 q 87 835 83 856 q 111 804 92 814 l 142 789 q 245 753 172 772 q 343 747 333 730 l 368 788 q 312 861 378 805 q 225 924 256 909 l 194 940 q 154 943 176 949 q 120 916 132 935 l 96 876 z "},"é":{"ha":572,"x_min":-47,"x_max":445,"o":"m 257 626 q 300 524 314 626 l 278 349 l 127 349 l 149 524 q 220 626 163 626 l 257 626 m 415 327 l 436 490 q 404 602 445 555 q 294 648 361 648 l 188 648 q 67 602 121 648 q 5 490 14 555 l -39 157 q -5 46 -47 92 q 104 0 37 0 l 210 0 q 331 46 277 0 q 393 157 385 92 l 401 216 l 260 216 l 248 123 q 178 22 235 22 l 141 22 q 98 123 84 22 l 124 327 l 415 327 m 409 877 q 406 836 416 857 q 375 806 396 815 l 340 790 q 227 755 305 774 q 127 749 134 732 l 113 789 q 189 863 107 806 q 292 926 257 909 l 327 941 q 368 944 348 951 q 395 917 388 937 l 409 877 z "},"ê":{"ha":572,"x_min":-47,"x_max":447,"o":"m 257 626 q 300 524 314 626 l 278 349 l 127 349 l 149 524 q 220 626 163 626 l 257 626 m 415 327 l 436 490 q 404 602 445 555 q 294 648 361 648 l 188 648 q 67 602 121 648 q 5 490 14 555 l -39 157 q -5 46 -47 92 q 104 0 37 0 l 210 0 q 331 46 277 0 q 393 157 385 92 l 401 216 l 260 216 l 248 123 q 178 22 235 22 l 141 22 q 98 123 84 22 l 124 327 l 415 327 m 333 893 q 302 905 320 904 q 275 905 290 909 q 243 890 258 901 l 109 794 q 80 762 88 780 q 80 731 72 743 l 81 730 q 110 720 90 718 q 151 737 130 722 l 258 812 l 354 728 q 391 717 370 715 q 429 735 413 719 l 430 736 q 447 772 446 752 q 432 806 447 793 l 333 893 z "},"ë":{"ha":572,"x_min":-47,"x_max":445,"o":"m 257 626 q 300 524 314 626 l 278 349 l 127 349 l 149 524 q 220 626 163 626 l 257 626 m 415 327 l 436 490 q 404 602 445 555 q 294 648 361 648 l 188 648 q 67 602 121 648 q 5 490 14 555 l -39 157 q -5 46 -47 92 q 104 0 37 0 l 210 0 q 331 46 277 0 q 393 157 385 92 l 401 216 l 260 216 l 248 123 q 178 22 235 22 l 141 22 q 98 123 84 22 l 124 327 l 415 327 m 428 810 q 408 773 425 789 q 368 758 390 758 l 331 758 q 296 773 309 758 q 285 810 282 789 l 291 855 q 311 892 294 877 q 351 908 329 908 l 387 908 q 423 892 410 908 q 434 855 437 877 l 428 810 m 234 810 q 214 773 231 789 q 174 758 196 758 l 137 758 q 102 773 115 758 q 91 810 88 789 l 97 855 q 117 892 100 877 q 157 908 135 908 l 193 908 q 229 892 216 908 q 239 855 242 877 l 234 810 z "},"ì":{"ha":290,"x_min":-144,"x_max":263,"o":"m 90 22 l 172 648 l -60 648 l -63 626 l 28 626 l -50 22 l -142 22 l -144 0 l 179 0 l 182 22 l 90 22 m -20 876 q -28 835 -32 856 q -5 804 -23 814 l 26 789 q 130 753 57 772 q 228 747 218 730 l 253 788 q 197 861 263 805 q 110 924 140 909 l 79 940 q 39 943 60 949 q 5 916 17 935 l -20 876 z "},"í":{"ha":290,"x_min":-144,"x_max":300,"o":"m 90 22 l 172 648 l -60 648 l -63 626 l 28 626 l -50 22 l -142 22 l -144 0 l 179 0 l 182 22 l 90 22 m 294 877 q 291 836 300 857 q 260 806 281 815 l 224 790 q 111 755 190 774 q 12 749 18 732 l -2 789 q 73 863 -8 806 q 177 926 142 909 l 212 941 q 253 944 233 951 q 279 917 273 937 l 294 877 z "},"î":{"ha":290,"x_min":-144,"x_max":304,"o":"m 90 22 l 172 648 l -60 648 l -63 626 l 28 626 l -50 22 l -142 22 l -144 0 l 179 0 l 182 22 l 90 22 m 191 893 q 159 905 178 904 q 132 905 148 909 q 100 890 116 901 l -34 794 q -62 762 -54 780 q -62 731 -71 743 l -62 730 q -33 720 -53 718 q 9 737 -12 722 l 115 812 l 212 728 q 249 717 227 715 q 287 735 271 719 l 288 736 q 304 772 304 752 q 290 806 304 793 l 191 893 z "},"ï":{"ha":290,"x_min":-144,"x_max":301,"o":"m 90 22 l 172 648 l -60 648 l -63 626 l 28 626 l -50 22 l -142 22 l -144 0 l 179 0 l 182 22 l 90 22 m 292 810 q 272 773 290 789 q 232 758 254 758 l 195 758 q 160 773 174 758 q 149 810 146 789 l 155 855 q 176 892 158 877 q 215 908 193 908 l 252 908 q 288 892 274 908 q 298 855 301 877 l 292 810 m 98 810 q 78 773 95 789 q 38 758 60 758 l 1 758 q -34 773 -20 758 q -45 810 -47 789 l -39 855 q -18 892 -36 877 q 21 908 -1 908 l 58 908 q 93 892 80 908 q 104 855 106 877 l 98 810 z "},"ñ":{"ha":572,"x_min":-151,"x_max":515,"o":"m 376 22 l 437 492 q 404 603 445 557 q 294 649 361 649 l 205 649 q 177 640 190 648 q 162 627 170 635 q 154 621 156 621 l 153 621 q 145 646 150 635 l 127 646 l 127 648 l -66 648 l -69 626 l 10 626 q 16 598 14 610 q 13 553 18 576 l -56 22 l -148 22 l -151 0 l 173 0 l 176 22 l 84 22 l 150 526 q 220 628 163 628 l 257 628 q 300 526 314 628 l 233 0 l 465 0 l 467 22 l 376 22 m 511 896 l 452 853 q 336 873 399 819 q 293 899 315 890 q 192 906 249 916 q 91 854 127 895 l 16 770 l 20 774 l 74 806 q 208 785 127 855 l 216 779 l 216 779 l 212 783 q 325 753 258 743 q 439 815 392 762 l 515 899 l 511 896 z "},"ò":{"ha":576,"x_min":-45,"x_max":446,"o":"m 250 123 q 180 22 237 22 l 142 22 q 99 123 85 22 l 151 524 q 221 626 164 626 l 258 626 q 302 524 315 626 l 250 123 m 189 648 q 68 602 122 648 q 6 490 15 555 l -37 157 q -4 46 -45 92 q 105 0 38 0 l 212 0 q 332 46 279 0 q 395 157 386 92 l 437 490 q 405 602 446 555 q 296 648 363 648 l 189 648 m 128 876 q 121 835 116 856 q 144 804 125 814 l 175 789 q 279 753 205 772 q 376 747 366 730 l 401 788 q 345 861 412 805 q 258 924 288 909 l 227 940 q 186 943 208 949 q 153 916 165 935 l 128 876 z "},"ó":{"ha":576,"x_min":-45,"x_max":446,"o":"m 250 123 q 180 22 237 22 l 142 22 q 99 123 85 22 l 151 524 q 221 626 164 626 l 258 626 q 302 524 315 626 l 250 123 m 189 648 q 68 602 122 648 q 6 490 15 555 l -37 157 q -4 46 -45 92 q 105 0 38 0 l 212 0 q 332 46 279 0 q 395 157 386 92 l 437 490 q 405 602 446 555 q 296 648 363 648 l 189 648 m 421 877 q 418 836 429 857 q 387 806 408 815 l 353 790 q 239 755 317 774 q 140 749 146 732 l 126 789 q 201 863 120 806 q 304 926 270 909 l 340 941 q 380 944 361 951 q 408 917 400 937 l 421 877 z "},"ô":{"ha":685,"x_min":-45,"x_max":447,"o":"m 332 893 q 302 905 320 904 q 275 905 290 909 q 243 890 258 901 l 109 794 q 79 762 88 780 q 80 731 71 743 l 81 730 q 110 720 89 718 q 151 737 130 722 l 257 812 l 354 728 q 391 717 369 715 q 429 735 413 719 l 430 736 q 446 772 446 752 q 432 806 447 793 l 332 893 m 250 123 q 180 22 237 22 l 143 22 q 100 123 86 22 l 151 524 q 222 626 165 626 l 259 626 q 302 524 316 626 l 250 123 m 190 648 q 69 602 123 648 q 7 490 16 555 l -37 157 q -3 46 -45 92 q 106 0 39 0 l 212 0 q 333 46 279 0 q 395 157 387 92 l 438 490 q 406 602 447 555 q 296 648 363 648 l 190 648 z "},"õ":{"ha":576,"x_min":-45,"x_max":529,"o":"m 250 123 q 180 22 237 22 l 143 22 q 100 123 86 22 l 151 524 q 222 626 165 626 l 259 626 q 302 524 316 626 l 250 123 m 190 648 q 69 602 123 648 q 7 490 16 555 l -37 157 q -3 46 -45 92 q 106 0 39 0 l 212 0 q 333 46 279 0 q 395 157 387 92 l 438 490 q 406 602 447 555 q 296 648 363 648 l 190 648 m 524 896 l 465 853 q 349 873 412 819 q 307 899 328 890 q 205 906 262 916 q 104 854 141 895 l 29 770 l 34 774 l 87 806 q 222 785 140 855 l 229 779 l 229 779 l 225 783 q 338 753 271 743 q 453 815 405 762 l 529 899 l 524 896 z "},"ö":{"ha":576,"x_min":-45,"x_max":446,"o":"m 250 123 q 180 22 237 22 l 142 22 q 99 123 85 22 l 151 524 q 221 626 164 626 l 258 626 q 302 524 315 626 l 250 123 m 189 648 q 68 602 122 648 q 6 490 15 555 l -37 157 q -4 46 -45 92 q 105 0 38 0 l 212 0 q 332 46 279 0 q 395 157 386 92 l 437 490 q 405 602 446 555 q 296 648 363 648 l 189 648 m 427 810 q 406 773 424 789 q 367 758 389 758 l 330 758 q 295 773 309 758 q 284 810 281 789 l 290 855 q 311 892 293 877 q 350 908 328 908 l 387 908 q 422 892 408 908 q 433 855 435 877 l 427 810 m 233 810 q 212 773 230 789 q 173 758 195 758 l 136 758 q 100 773 114 758 q 90 810 87 789 l 96 855 q 116 892 98 877 q 156 908 134 908 l 193 908 q 228 892 214 908 q 239 855 241 877 l 233 810 z "},"ù":{"ha":572,"x_min":-68,"x_max":468,"o":"m 23 628 l -38 157 q -5 46 -46 92 q 104 0 37 0 l 193 0 q 222 9 209 1 q 237 22 229 14 q 244 28 243 28 q 245 28 244 28 q 254 3 248 15 l 271 3 l 271 2 l 465 2 l 468 24 l 389 24 q 383 51 385 39 q 386 96 381 73 l 457 649 l 226 649 l 222 628 l 315 628 l 249 123 q 178 22 235 22 l 142 22 q 98 123 85 22 l 163 628 l 163 628 l 166 649 l -66 649 l -68 628 l 23 628 m 129 876 q 121 835 117 856 q 144 804 126 814 l 176 789 q 279 753 206 772 q 377 747 367 730 l 401 788 q 345 861 412 805 q 258 924 290 909 l 228 940 q 187 943 209 949 q 153 916 165 935 l 129 876 z "},"ú":{"ha":572,"x_min":-68,"x_max":468,"o":"m 23 628 l -38 157 q -5 46 -46 92 q 104 0 37 0 l 193 0 q 222 9 209 1 q 237 22 229 14 q 244 28 243 28 q 245 28 244 28 q 254 3 248 15 l 271 3 l 271 2 l 465 2 l 468 24 l 389 24 q 383 51 385 39 q 386 96 381 73 l 457 649 l 226 649 l 222 628 l 315 628 l 249 123 q 178 22 235 22 l 142 22 q 98 123 85 22 l 163 628 l 163 628 l 166 649 l -66 649 l -68 628 l 23 628 m 416 877 q 412 836 422 857 q 382 806 403 815 l 347 790 q 233 755 312 774 q 134 749 140 732 l 120 789 q 195 863 114 806 q 298 926 264 909 l 334 941 q 374 944 355 951 q 401 917 395 937 l 416 877 z "},"û":{"ha":572,"x_min":-68,"x_max":468,"o":"m 23 628 l -38 157 q -5 46 -46 92 q 104 0 37 0 l 193 0 q 222 9 209 1 q 237 22 229 14 q 244 28 243 28 q 245 28 244 28 q 254 3 248 15 l 271 3 l 271 2 l 465 2 l 468 24 l 389 24 q 383 51 385 39 q 386 96 381 73 l 457 649 l 226 649 l 222 628 l 315 628 l 249 123 q 178 22 235 22 l 142 22 q 98 123 85 22 l 163 628 l 163 628 l 166 649 l -66 649 l -68 628 l 23 628 m 326 893 q 295 905 313 904 q 268 905 283 909 q 236 890 252 901 l 102 794 q 73 762 81 780 q 73 731 64 743 l 74 730 q 103 720 83 718 q 144 737 123 722 l 250 812 l 347 728 q 385 717 362 715 q 422 735 406 719 l 423 736 q 439 772 439 752 q 425 806 440 793 l 326 893 z "},"ü":{"ha":572,"x_min":-68,"x_max":468,"o":"m 23 628 l -38 157 q -5 46 -46 92 q 104 0 37 0 l 193 0 q 222 9 209 1 q 237 22 229 14 q 244 28 243 28 q 245 28 244 28 q 254 3 248 15 l 271 3 l 271 2 l 465 2 l 468 24 l 389 24 q 383 51 385 39 q 386 96 381 73 l 457 649 l 226 649 l 222 628 l 315 628 l 249 123 q 178 22 235 22 l 142 22 q 98 123 85 22 l 163 628 l 163 628 l 166 649 l -66 649 l -68 628 l 23 628 m 414 810 q 394 773 412 789 q 354 758 376 758 l 317 758 q 282 773 296 758 q 271 810 269 789 l 277 855 q 298 892 280 877 q 337 908 315 908 l 374 908 q 410 892 396 908 q 420 855 423 877 l 414 810 m 220 810 q 199 773 217 789 q 160 758 182 758 l 123 758 q 88 773 102 758 q 77 810 75 789 l 83 855 q 103 892 86 877 q 143 908 121 908 l 180 908 q 215 892 201 908 q 226 855 229 877 l 220 810 z "},"ý":{"ha":574,"x_min":-104,"x_max":455,"o":"m 455 649 l 224 649 l 221 628 l 313 628 l 247 123 q 245 115 247 122 l 245 115 q 244 108 245 113 q 177 22 229 22 l 140 22 q 96 123 83 22 l 161 628 l 161 628 l 164 649 l -68 649 l -71 628 l 21 628 l -12 372 l -12 372 l -40 157 q -7 46 -48 92 q 102 0 35 0 l 231 0 l 191 -308 q 121 -410 178 -410 l 83 -410 q 40 -308 26 -410 l 52 -216 l -88 -216 l -96 -274 q -63 -385 -104 -339 q 46 -431 -21 -431 l 153 -431 q 273 -385 220 -431 q 336 -274 327 -339 l 455 649 m 416 877 q 413 836 423 857 q 382 806 403 815 l 347 790 q 234 755 312 774 q 135 749 140 732 l 121 789 q 196 863 115 806 q 299 926 264 909 l 334 941 q 375 944 355 951 q 401 917 395 937 l 416 877 z "},"ÿ":{"ha":574,"x_min":-104,"x_max":455,"o":"m 455 649 l 224 649 l 221 628 l 313 628 l 247 123 q 245 115 247 122 l 245 115 q 244 108 245 113 q 177 22 229 22 l 140 22 q 96 123 83 22 l 161 628 l 161 628 l 164 649 l -68 649 l -71 628 l 21 628 l -12 372 l -12 372 l -40 157 q -7 46 -48 92 q 102 0 35 0 l 231 0 l 191 -308 q 121 -410 178 -410 l 83 -410 q 40 -308 26 -410 l 52 -216 l -88 -216 l -96 -274 q -63 -385 -104 -339 q 46 -431 -21 -431 l 153 -431 q 273 -385 220 -431 q 336 -274 327 -339 l 455 649 m 421 810 q 401 773 418 789 q 361 758 383 758 l 325 758 q 289 773 302 758 q 279 810 275 789 l 284 855 q 304 892 287 877 q 345 908 322 908 l 381 908 q 416 892 403 908 q 427 855 430 877 l 421 810 m 227 810 q 207 773 224 789 q 168 758 189 758 l 131 758 q 95 773 109 758 q 84 810 81 789 l 90 855 q 111 892 93 877 q 150 908 128 908 l 186 908 q 222 892 209 908 q 233 855 236 877 l 227 810 z "},"ˆ":{"ha":460,"x_min":72,"x_max":448,"o":"m 333 893 q 302 905 321 904 q 275 905 291 909 q 243 890 258 901 l 109 794 q 80 762 89 780 q 81 731 72 743 l 81 730 q 111 720 90 718 q 151 737 131 722 l 258 812 l 355 728 q 391 717 370 715 q 429 735 414 719 l 431 736 q 447 772 446 752 q 433 806 448 793 l 333 893 z "},"ˇ":{"ha":572,"x_min":90,"x_max":465,"o":"m 203 730 q 234 719 216 720 q 261 719 245 715 q 293 733 277 722 l 428 828 q 456 861 448 842 q 456 891 465 880 l 456 892 q 427 902 448 904 q 386 886 406 900 l 279 810 l 183 896 q 146 907 168 909 q 108 889 124 905 l 107 888 q 90 852 91 872 q 104 818 90 831 l 203 730 z "},"˚":{"ha":451,"x_min":182,"x_max":383,"o":"m 351 812 q 331 774 349 790 q 292 759 313 759 l 255 759 q 219 774 233 759 q 208 812 205 790 l 214 857 q 235 894 217 878 q 274 909 252 909 l 311 909 q 347 894 333 909 q 357 857 360 878 l 351 812 m 271 931 q 220 911 243 931 q 193 863 197 891 l 186 806 q 200 758 182 777 q 246 737 218 737 l 294 737 q 346 758 323 737 q 372 806 368 777 l 380 863 q 366 911 383 891 q 319 931 348 931 l 271 931 z "},"˜":{"ha":523,"x_min":36,"x_max":536,"o":"m 531 896 l 473 853 q 356 873 419 819 q 313 899 335 890 q 212 906 269 916 q 112 854 148 895 l 36 770 l 41 774 l 94 806 q 229 785 147 855 l 236 779 l 236 779 l 232 783 q 345 753 279 743 q 460 815 412 762 l 536 899 l 531 896 z "},"˝":{"ha":456,"x_min":62,"x_max":400,"o":"m 214 1025 q 203 1063 217 1048 q 168 1078 190 1078 l 131 1078 q 92 1063 109 1078 q 71 1025 74 1048 l 65 981 q 76 943 62 959 q 111 928 90 928 l 130 928 q 111 877 128 903 l 68 818 l 65 813 l 149 889 q 206 968 186 922 l 214 1025 m 397 1025 q 387 1063 400 1048 q 351 1078 373 1078 l 314 1078 q 275 1063 292 1078 q 254 1025 257 1048 l 248 981 q 259 943 245 959 q 294 928 273 928 l 313 928 q 294 877 311 903 l 252 818 l 248 813 l 332 889 q 389 968 369 922 l 397 1025 z "},"‘":{"ha":271,"x_min":62,"x_max":217,"o":"m 65 982 q 76 945 62 960 q 111 928 90 929 l 148 928 q 187 944 170 928 q 208 981 205 959 l 214 1025 q 204 1063 217 1048 q 168 1079 191 1079 l 150 1079 q 169 1131 152 1104 l 212 1189 l 216 1194 l 131 1118 q 73 1040 94 1085 l 65 982 z "},"’":{"ha":271,"x_min":62,"x_max":217,"o":"m 214 1025 q 203 1063 217 1048 q 168 1078 190 1078 l 131 1078 q 92 1063 109 1078 q 71 1025 74 1048 l 65 981 q 76 943 62 959 q 111 928 90 928 l 130 928 q 111 877 128 903 l 68 818 l 65 813 l 149 889 q 206 968 186 922 l 214 1025 z "},"‚":{"ha":288,"x_min":-34,"x_max":121,"o":"m 117 98 q 107 136 121 120 q 71 151 94 151 l 35 151 q -5 136 13 151 q -25 98 -22 120 l -31 54 q -20 16 -34 31 q 15 0 -7 0 l 34 0 q 15 -51 32 -24 l -28 -109 l -31 -115 l 53 -39 q 110 40 90 -5 l 117 98 z "},"“":{"ha":456,"x_min":61,"x_max":399,"o":"m 247 975 q 257 937 243 952 q 292 920 270 921 l 328 920 q 368 935 351 919 q 389 972 386 949 l 396 1016 q 386 1054 399 1038 q 351 1070 373 1070 l 333 1071 q 352 1122 335 1095 l 396 1179 l 399 1184 l 314 1110 q 256 1032 277 1078 l 247 975 m 64 978 q 74 940 61 956 q 109 924 87 924 l 146 923 q 186 938 168 923 q 207 975 203 954 l 214 1020 q 203 1057 217 1042 q 168 1074 191 1074 l 150 1074 q 170 1125 153 1099 l 214 1183 l 217 1188 l 132 1114 q 73 1036 94 1081 l 64 978 z "},"”":{"ha":456,"x_min":62,"x_max":400,"o":"m 214 1025 q 203 1063 217 1048 q 168 1078 190 1078 l 131 1078 q 92 1063 109 1078 q 71 1025 74 1048 l 65 981 q 76 943 62 959 q 111 928 90 928 l 130 928 q 111 877 128 903 l 68 818 l 65 813 l 149 889 q 206 968 186 922 l 214 1025 m 397 1025 q 387 1063 400 1048 q 351 1078 373 1078 l 314 1078 q 275 1063 292 1078 q 254 1025 257 1048 l 248 981 q 259 943 245 959 q 294 928 273 928 l 313 928 q 294 877 311 903 l 252 818 l 248 813 l 332 889 q 389 968 369 922 l 397 1025 z "},"„":{"ha":403,"x_min":-34,"x_max":317,"o":"m 117 98 q 107 136 121 120 q 71 151 94 151 l 35 151 q -5 136 13 151 q -25 98 -22 120 l -31 54 q -20 16 -34 31 q 15 0 -7 0 l 34 0 q 15 -51 32 -24 l -28 -109 l -31 -115 l 53 -39 q 110 40 90 -5 l 117 98 m 314 98 q 304 136 317 120 q 268 151 290 151 l 231 151 q 192 136 210 151 q 172 98 174 120 l 165 54 q 176 16 163 31 q 212 0 190 0 l 231 0 q 212 -51 229 -24 l 169 -109 l 165 -115 l 250 -39 q 307 40 286 -5 l 314 98 z "},"∫":{"ha":301,"x_min":-430,"x_max":540,"o":"m 283 1372 q 162 1326 216 1372 q 100 1215 108 1280 l 26 648 l -60 648 l -63 626 l 23 626 l -4 417 l -5 417 q -7 394 -5 406 l -135 -588 q -205 -690 -148 -690 l -242 -690 q -286 -588 -299 -690 l -274 -496 l -414 -496 l -422 -555 q -389 -666 -430 -620 q -279 -711 -347 -711 l -173 -711 q -52 -666 -106 -711 q 10 -555 1 -620 l 113 243 l 115 243 q 117 266 115 254 l 163 626 l 260 626 l 263 648 l 166 648 l 244 1248 q 315 1350 258 1350 l 351 1350 q 395 1248 408 1350 l 383 1156 l 524 1156 l 531 1215 q 498 1326 540 1280 q 389 1372 456 1372 l 283 1372 z "}}}
